<?xml version="1.0" encoding="UTF-8" standalone="no"?>
<!-- Created with Inkscape (http://www.inkscape.org/) -->

<svg
   xmlns:dc="http://purl.org/dc/elements/1.1/"
   xmlns:cc="http://creativecommons.org/ns#"
   xmlns:rdf="http://www.w3.org/1999/02/22-rdf-syntax-ns#"
   xmlns:svg="http://www.w3.org/2000/svg"
   xmlns="http://www.w3.org/2000/svg"
   xmlns:sodipodi="http://sodipodi.sourceforge.net/DTD/sodipodi-0.dtd"
   xmlns:inkscape="http://www.inkscape.org/namespaces/inkscape"
   width="16"
   height="16"
   id="svg2"
   version="1.1"
   inkscape:version="0.47 r22583"
   sodipodi:docname="hca.image.seg.svg"
   inkscape:export-filename="/home/hornm/workspaces/eclipse/workspace/org.knime.ip/icons/hca.image.seg.png"
   inkscape:export-xdpi="92.260925"
   inkscape:export-ydpi="92.260925">
  <defs
     id="defs4">
    <marker
       inkscape:stockid="Arrow2Send"
       orient="auto"
       refY="0.0"
       refX="0.0"
       id="Arrow2Send"
       style="overflow:visible;">
      <path
         id="path3744"
         style="font-size:12.0;fill-rule:evenodd;stroke-width:0.62500000;stroke-linejoin:round;"
         d="M 8.7185878,4.0337352 L -2.2072895,0.016013256 L 8.7185884,-4.0017078 C 6.9730900,-1.6296469 6.9831476,1.6157441 8.7185878,4.0337352 z "
         transform="scale(0.3) rotate(180) translate(-2.3,0)" />
    </marker>
    <marker
       inkscape:stockid="Arrow1Mend"
       orient="auto"
       refY="0.0"
       refX="0.0"
       id="Arrow1Mend"
       style="overflow:visible;">
      <path
         id="path3720"
         d="M 0.0,0.0 L 5.0,-5.0 L -12.5,0.0 L 5.0,5.0 L 0.0,0.0 z "
         style="fill-rule:evenodd;stroke:#000000;stroke-width:1.0pt;marker-start:none;"
         transform="scale(0.4) rotate(180) translate(10,0)" />
    </marker>
    <marker
       inkscape:stockid="DiamondS"
       orient="auto"
       refY="0.0"
       refX="0.0"
       id="DiamondS"
       style="overflow:visible">
      <path
         id="path3797"
         d="M 0,-7.0710768 L -7.0710894,0 L 0,7.0710589 L 7.0710462,0 L 0,-7.0710768 z "
         style="fill-rule:evenodd;stroke:#000000;stroke-width:1.0pt;marker-start:none"
         transform="scale(0.2)" />
    </marker>
    <marker
       inkscape:stockid="Arrow2Mend"
       orient="auto"
       refY="0.0"
       refX="0.0"
       id="Arrow2Mend"
       style="overflow:visible;">
      <path
         id="path3738"
         style="font-size:12.0;fill-rule:evenodd;stroke-width:0.62500000;stroke-linejoin:round;"
         d="M 8.7185878,4.0337352 L -2.2072895,0.016013256 L 8.7185884,-4.0017078 C 6.9730900,-1.6296469 6.9831476,1.6157441 8.7185878,4.0337352 z "
         transform="scale(0.6) rotate(180) translate(0,0)" />
    </marker>
    <marker
       inkscape:stockid="Arrow1Lend"
       orient="auto"
       refY="0.0"
       refX="0.0"
       id="Arrow1Lend"
       style="overflow:visible;">
      <path
         id="path3714"
         d="M 0.0,0.0 L 5.0,-5.0 L -12.5,0.0 L 5.0,5.0 L 0.0,0.0 z "
         style="fill-rule:evenodd;stroke:#000000;stroke-width:1.0pt;marker-start:none;"
         transform="scale(0.8) rotate(180) translate(12.5,0)" />
    </marker>
    <inkscape:perspective
       sodipodi:type="inkscape:persp3d"
       inkscape:vp_x="0 : 526.18109 : 1"
       inkscape:vp_y="0 : 1000 : 0"
       inkscape:vp_z="1371.7932 : 339.99927 : 1"
       inkscape:persp3d-origin="372.04724 : 350.78739 : 1"
       id="perspective10" />
    <inkscape:perspective
       id="perspective3628"
       inkscape:persp3d-origin="0.5 : 0.33333333 : 1"
       inkscape:vp_z="1 : 0.5 : 1"
       inkscape:vp_y="0 : 1000 : 0"
       inkscape:vp_x="0 : 0.5 : 1"
       sodipodi:type="inkscape:persp3d" />
    <inkscape:perspective
       id="perspective3650"
       inkscape:persp3d-origin="0.5 : 0.33333333 : 1"
       inkscape:vp_z="1 : 0.5 : 1"
       inkscape:vp_y="0 : 1000 : 0"
       inkscape:vp_x="0 : 0.5 : 1"
       sodipodi:type="inkscape:persp3d" />
    <inkscape:perspective
       id="perspective3679"
       inkscape:persp3d-origin="0.5 : 0.33333333 : 1"
       inkscape:vp_z="1 : 0.5 : 1"
       inkscape:vp_y="0 : 1000 : 0"
       inkscape:vp_x="0 : 0.5 : 1"
       sodipodi:type="inkscape:persp3d" />
    <inkscape:perspective
       id="perspective3679-7"
       inkscape:persp3d-origin="0.5 : 0.33333333 : 1"
       inkscape:vp_z="1 : 0.5 : 1"
       inkscape:vp_y="0 : 1000 : 0"
       inkscape:vp_x="0 : 0.5 : 1"
       sodipodi:type="inkscape:persp3d" />
    <inkscape:perspective
       id="perspective2844"
       inkscape:persp3d-origin="0.5 : 0.33333333 : 1"
       inkscape:vp_z="1 : 0.5 : 1"
       inkscape:vp_y="0 : 1000 : 0"
       inkscape:vp_x="0 : 0.5 : 1"
       sodipodi:type="inkscape:persp3d" />
    <inkscape:perspective
       id="perspective2866"
       inkscape:persp3d-origin="0.5 : 0.33333333 : 1"
       inkscape:vp_z="1 : 0.5 : 1"
       inkscape:vp_y="0 : 1000 : 0"
       inkscape:vp_x="0 : 0.5 : 1"
       sodipodi:type="inkscape:persp3d" />
    <inkscape:perspective
       id="perspective2888"
       inkscape:persp3d-origin="0.5 : 0.33333333 : 1"
       inkscape:vp_z="1 : 0.5 : 1"
       inkscape:vp_y="0 : 1000 : 0"
       inkscape:vp_x="0 : 0.5 : 1"
       sodipodi:type="inkscape:persp3d" />
    <marker
       inkscape:stockid="Arrow2Send"
       orient="auto"
       refY="0"
       refX="0"
       id="Arrow2Send-5"
       style="overflow:visible">
      <path
         id="path3744-5"
         style="font-size:12px;fill-rule:evenodd;stroke-width:0.625;stroke-linejoin:round"
         d="M 8.7185878,4.0337352 -2.2072895,0.01601326 8.7185884,-4.0017078 c -1.7454984,2.3720609 -1.7354408,5.6174519 -6e-7,8.035443 z"
         transform="matrix(-0.3,0,0,-0.3,0.69,0)" />
    </marker>
    <inkscape:perspective
       id="perspective3652"
       inkscape:persp3d-origin="0.5 : 0.33333333 : 1"
       inkscape:vp_z="1 : 0.5 : 1"
       inkscape:vp_y="0 : 1000 : 0"
       inkscape:vp_x="0 : 0.5 : 1"
       sodipodi:type="inkscape:persp3d" />
    <inkscape:perspective
       id="perspective3655"
       inkscape:persp3d-origin="0.5 : 0.33333333 : 1"
       inkscape:vp_z="1 : 0.5 : 1"
       inkscape:vp_y="0 : 1000 : 0"
       inkscape:vp_x="0 : 0.5 : 1"
       sodipodi:type="inkscape:persp3d" />
    <inkscape:perspective
       id="perspective4634"
       inkscape:persp3d-origin="0.5 : 0.33333333 : 1"
       inkscape:vp_z="1 : 0.5 : 1"
       inkscape:vp_y="0 : 1000 : 0"
       inkscape:vp_x="0 : 0.5 : 1"
       sodipodi:type="inkscape:persp3d" />
  </defs>
  <sodipodi:namedview
     id="base"
     pagecolor="#ffffff"
     bordercolor="#666666"
     borderopacity="1.0"
     inkscape:pageopacity="0.0"
     inkscape:pageshadow="2"
     inkscape:zoom="32"
     inkscape:cx="1.8536436"
     inkscape:cy="7.5180652"
     inkscape:document-units="px"
     inkscape:current-layer="layer1"
     showgrid="false"
     inkscape:window-width="1600"
     inkscape:window-height="1181"
     inkscape:window-x="1596"
     inkscape:window-y="-4"
     inkscape:window-maximized="1" />
  <metadata
     id="metadata7">
    <rdf:RDF>
      <cc:Work
         rdf:about="">
        <dc:format>image/svg+xml</dc:format>
        <dc:type
           rdf:resource="http://purl.org/dc/dcmitype/StillImage" />
        <dc:title></dc:title>
      </cc:Work>
    </rdf:RDF>
  </metadata>
  <g
     inkscape:label="Layer 1"
     inkscape:groupmode="layer"
     id="layer1"
     transform="translate(0,-1036.3622)">
    <path
       style="color:#000000;fill:#ffeeaa;stroke:#000000;stroke-width:0.5;stroke-linecap:butt;stroke-linejoin:miter;stroke-miterlimit:4;stroke-opacity:1;stroke-dasharray:none;stroke-dashoffset:0;marker:none;visibility:visible;display:inline;overflow:visible;enable-background:accumulate"
       d="m 0.40625,1051.5496 13.0625,0 0,-13.0937 -8,0 c 0,0 -0.609375,-0.9218 -0.609375,-0.9218 l -4.453125,0 0,14.0155 z"
       id="path2837"
       sodipodi:nodetypes="ccccccc"
       inkscape:export-filename="/home/hornm/workspaces/eclipse/workspace/org.knime.ip/icons/svg/path3656.png"
       inkscape:export-xdpi="90"
       inkscape:export-ydpi="90" />
    <path
       style="color:#000000;fill:#e6e6e6;stroke:#000000;stroke-width:0.5;stroke-linecap:butt;stroke-linejoin:miter;stroke-miterlimit:4;stroke-opacity:1;stroke-dasharray:none;stroke-dashoffset:0;marker:none;visibility:visible;display:inline;overflow:visible;enable-background:accumulate"
       d="m 0.4609375,1051.5496 13.0624995,0 1.99072,-10.3437 -8.0000009,0 c 0,0 -0.7020407,0.4815 -0.7020407,0.4815 l -4.453125,0 -1.8980529,9.8622 z"
       id="path2837-1"
       sodipodi:nodetypes="ccccccc"
       inkscape:export-filename="/home/hornm/workspaces/eclipse/workspace/org.knime.ip/icons/svg/path3656.png"
       inkscape:export-xdpi="90"
       inkscape:export-ydpi="90" />
    <path
       style="fill:#e70018;fill-opacity:1;stroke:#000000;stroke-width:0.21612233;stroke-linecap:butt;stroke-linejoin:miter;stroke-miterlimit:4;stroke-opacity:1;stroke-dasharray:none"
       d="m 5.4264911,1044.5725 c -0.3059345,0.077 -0.5816635,0.2592 -0.8328322,0.4503 -0.2153973,0.1639 -0.4814311,0.3273 -0.5627244,0.5855 -0.1163497,0.3695 -0.1317706,0.9185 0.1800718,1.1483 0.2503062,0.1845 0.6338023,-0.021 0.9228681,-0.1351 0.2806085,-0.1111 0.7125019,-0.2175 0.7427963,-0.5179 0.021841,-0.2165 -0.4691678,-0.256 -0.4501796,-0.4728 0.015453,-0.1765 0.2712636,-0.2322 0.4276706,-0.3152 0.2179928,-0.1158 0.5787692,-0.031 0.6977783,-0.2477 0.081625,-0.1484 0.019751,-0.3897 -0.1125448,-0.4954 -0.2638763,-0.2107 -0.6855807,-0.083 -1.0129041,0 z"
       id="path2842"
       sodipodi:nodetypes="cssssssssss"
       inkscape:export-filename="/home/hornm/workspaces/eclipse/workspace/org.knime.ip/icons/svg/path3656.png"
       inkscape:export-xdpi="90"
       inkscape:export-ydpi="90" />
    <path
       style="fill:#cfe700;fill-opacity:1;stroke:#000000;stroke-width:0.21612233;stroke-linecap:butt;stroke-linejoin:miter;stroke-miterlimit:4;stroke-opacity:1;stroke-dasharray:none"
       d="m 5.6290719,1045.6983 c -0.085934,0.159 0.3256967,0.2279 0.3601437,0.4053 0.021263,0.1096 -0.036695,0.2335 -0.1125449,0.3153 -0.1507534,0.1626 -0.3986345,0.1965 -0.6077424,0.2702 -0.2489135,0.088 -0.5130267,0.1252 -0.7653053,0.2026 -0.1519913,0.047 -0.3492237,0.035 -0.4501796,0.1576 -0.2021366,0.246 -0.079487,0.6322 -0.1350538,0.9457 -0.044183,0.2493 -0.2539988,0.509 -0.1575629,0.7431 0.099111,0.2406 0.4034946,0.3534 0.6527604,0.4278 0.2372599,0.071 0.4982574,0.039 0.7427963,0 0.3351046,-0.053 0.6313883,-0.2717 0.9678861,-0.3152 0.387579,-0.05 0.8075419,0.2125 1.1704668,0.068 0.305629,-0.1221 0.6127495,-0.3973 0.6752694,-0.7205 0.055055,-0.2847 -0.2250898,-0.7656 -0.3151257,-0.8106 -0.090036,-0.045 -0.6096024,-0.1252 -0.7653053,-0.3603 -0.2114868,-0.3193 0.2107731,-0.8632 -0.045018,-1.1483 -0.2735833,-0.3049 -1.0206976,-0.5406 -1.2154849,-0.1802 z"
       id="path3652"
       sodipodi:nodetypes="cssssssssssssssss"
       inkscape:export-filename="/home/hornm/workspaces/eclipse/workspace/org.knime.ip/icons/svg/path3656.png"
       inkscape:export-xdpi="90"
       inkscape:export-ydpi="90" />
    <path
       style="fill:#0600e7;fill-opacity:1;stroke:#000000;stroke-width:0.21612233;stroke-linecap:butt;stroke-linejoin:miter;stroke-miterlimit:4;stroke-opacity:1;stroke-dasharray:none"
       d="m 6.9345927,1045.7434 c -0.020963,0.01 -0.00361,0.045 0,0.067 0.015202,0.094 0.07224,0.177 0.090036,0.2702 0.050726,0.2658 -0.1018689,0.5834 0.045018,0.8106 0.1239032,0.1917 0.4418831,0.1585 0.6077425,0.3152 0.1711541,0.1618 0.2945746,0.3818 0.3601436,0.608 0.071064,0.2452 0.1034365,0.5234 0.022509,0.7656 -0.076171,0.2278 -0.3706674,0.3361 -0.4501796,0.5629 -0.064572,0.1841 -0.1354112,0.4449 0,0.5854 0.5732726,0.5947 1.6528832,0.022 2.4759878,0.09 0.294022,0.024 0.601575,0.216 0.87785,0.1125 0.169219,-0.063 0.360144,-0.3152 0.360144,-0.4053 0,-0.09 0.225089,-1.396 0.270107,-1.486 0.04502,-0.09 0.270108,-0.9683 0.270108,-1.0583 0,-0.09 0.09546,-0.7187 -0.112545,-0.9682 -0.180868,-0.217 -0.530073,-0.2126 -0.810323,-0.2477 -0.313042,-0.039 -0.642969,-0.045 -0.945377,0.045 -0.2417645,0.072 -0.4358272,0.2541 -0.6527604,0.3828 -0.2257759,0.134 -0.4623203,0.2518 -0.6752694,0.4053 -0.168351,0.1214 -0.2652765,0.4121 -0.4726885,0.4053 -0.4613559,-0.015 -0.6686751,-0.6371 -0.9903951,-0.9682 -0.092516,-0.095 -0.1464797,-0.3411 -0.2701077,-0.2927 z"
       id="path3654"
       sodipodi:nodetypes="csssssssssssssssssssss"
       inkscape:export-filename="/home/hornm/workspaces/eclipse/workspace/org.knime.ip/icons/svg/path3656.png"
       inkscape:export-xdpi="90"
       inkscape:export-ydpi="90" />
    <path
       style="fill:#0ce700;fill-opacity:1;stroke:#000000;stroke-width:0.21612233;stroke-linecap:butt;stroke-linejoin:miter;stroke-miterlimit:4;stroke-opacity:1;stroke-dasharray:none"
       d="m 6.641976,1044.3474 c -0.00336,0.5337 0.3847285,1.0088 0.6977783,1.441 0.1774572,0.245 0.3790178,0.5018 0.6527604,0.6305 0.1844777,0.087 0.4104488,0.1187 0.6077424,0.068 0.4634916,-0.1203 0.7260719,-0.6547 1.1704669,-0.8331 0.337772,-0.1356 0.71654,-0.1643 1.080431,-0.1576 0.373733,0.01 0.802383,0.425 1.10294,0.2026 0.261162,-0.1931 0.02166,-0.6562 0.112545,-0.9682 0.077,-0.2642 0.308156,-0.4727 0.360143,-0.743 0.0199,-0.1035 0.05482,-0.2437 -0.02251,-0.3152 -0.760351,-0.7031 -2.071034,0.045 -3.1062386,0.023 -0.3004261,-0.01 -0.6041346,-0.096 -0.9003591,-0.045 -0.3914493,0.067 -0.7185365,0.3508 -1.10294,0.4504 -0.1828838,0.047 -0.4082329,-0.041 -0.5627244,0.068 -0.054879,0.039 -0.089614,0.113 -0.090036,0.1802 z"
       id="path3656"
       sodipodi:nodetypes="cssssssssssssss"
       inkscape:export-xdpi="90"
       inkscape:export-ydpi="90" />
  </g>
</svg>
