<?xml version="1.0" encoding="UTF-8" standalone="no"?>
<!-- Created with Inkscape (http://www.inkscape.org/) -->

<svg
   xmlns:dc="http://purl.org/dc/elements/1.1/"
   xmlns:cc="http://creativecommons.org/ns#"
   xmlns:rdf="http://www.w3.org/1999/02/22-rdf-syntax-ns#"
   xmlns:svg="http://www.w3.org/2000/svg"
   xmlns="http://www.w3.org/2000/svg"
   xmlns:sodipodi="http://sodipodi.sourceforge.net/DTD/sodipodi-0.dtd"
   xmlns:inkscape="http://www.inkscape.org/namespaces/inkscape"
   width="16"
   height="16"
   id="svg2"
   version="1.1"
   inkscape:version="0.48.0 r9654"
   sodipodi:docname="clahe.svg"
   inkscape:export-filename="/home/hornm/workspaces/eclipse/workspace/org.knime.yaiap/src/org/knime/yaiap/nodes/proc/clahe/clahe.png"
   inkscape:export-xdpi="90"
   inkscape:export-ydpi="90">
  <defs
     id="defs4">
    <marker
       inkscape:stockid="Arrow2Send"
       orient="auto"
       refY="0.0"
       refX="0.0"
       id="Arrow2Send"
       style="overflow:visible;">
      <path
         id="path3744"
         style="font-size:12.0;fill-rule:evenodd;stroke-width:0.62500000;stroke-linejoin:round;"
         d="M 8.7185878,4.0337352 L -2.2072895,0.016013256 L 8.7185884,-4.0017078 C 6.9730900,-1.6296469 6.9831476,1.6157441 8.7185878,4.0337352 z "
         transform="scale(0.3) rotate(180) translate(-2.3,0)" />
    </marker>
    <marker
       inkscape:stockid="Arrow1Mend"
       orient="auto"
       refY="0.0"
       refX="0.0"
       id="Arrow1Mend"
       style="overflow:visible;">
      <path
         id="path3720"
         d="M 0.0,0.0 L 5.0,-5.0 L -12.5,0.0 L 5.0,5.0 L 0.0,0.0 z "
         style="fill-rule:evenodd;stroke:#000000;stroke-width:1.0pt;marker-start:none;"
         transform="scale(0.4) rotate(180) translate(10,0)" />
    </marker>
    <marker
       inkscape:stockid="DiamondS"
       orient="auto"
       refY="0.0"
       refX="0.0"
       id="DiamondS"
       style="overflow:visible">
      <path
         id="path3797"
         d="M 0,-7.0710768 L -7.0710894,0 L 0,7.0710589 L 7.0710462,0 L 0,-7.0710768 z "
         style="fill-rule:evenodd;stroke:#000000;stroke-width:1.0pt;marker-start:none"
         transform="scale(0.2)" />
    </marker>
    <marker
       inkscape:stockid="Arrow2Mend"
       orient="auto"
       refY="0.0"
       refX="0.0"
       id="Arrow2Mend"
       style="overflow:visible;">
      <path
         id="path3738"
         style="font-size:12.0;fill-rule:evenodd;stroke-width:0.62500000;stroke-linejoin:round;"
         d="M 8.7185878,4.0337352 L -2.2072895,0.016013256 L 8.7185884,-4.0017078 C 6.9730900,-1.6296469 6.9831476,1.6157441 8.7185878,4.0337352 z "
         transform="scale(0.6) rotate(180) translate(0,0)" />
    </marker>
    <marker
       inkscape:stockid="Arrow1Lend"
       orient="auto"
       refY="0.0"
       refX="0.0"
       id="Arrow1Lend"
       style="overflow:visible;">
      <path
         id="path3714"
         d="M 0.0,0.0 L 5.0,-5.0 L -12.5,0.0 L 5.0,5.0 L 0.0,0.0 z "
         style="fill-rule:evenodd;stroke:#000000;stroke-width:1.0pt;marker-start:none;"
         transform="scale(0.8) rotate(180) translate(12.5,0)" />
    </marker>
    <inkscape:perspective
       sodipodi:type="inkscape:persp3d"
       inkscape:vp_x="0 : 526.18109 : 1"
       inkscape:vp_y="0 : 1000 : 0"
       inkscape:vp_z="1371.7932 : 339.99927 : 1"
       inkscape:persp3d-origin="372.04724 : 350.78739 : 1"
       id="perspective10" />
    <inkscape:perspective
       id="perspective3628"
       inkscape:persp3d-origin="0.5 : 0.33333333 : 1"
       inkscape:vp_z="1 : 0.5 : 1"
       inkscape:vp_y="0 : 1000 : 0"
       inkscape:vp_x="0 : 0.5 : 1"
       sodipodi:type="inkscape:persp3d" />
    <inkscape:perspective
       id="perspective3650"
       inkscape:persp3d-origin="0.5 : 0.33333333 : 1"
       inkscape:vp_z="1 : 0.5 : 1"
       inkscape:vp_y="0 : 1000 : 0"
       inkscape:vp_x="0 : 0.5 : 1"
       sodipodi:type="inkscape:persp3d" />
    <inkscape:perspective
       id="perspective3679"
       inkscape:persp3d-origin="0.5 : 0.33333333 : 1"
       inkscape:vp_z="1 : 0.5 : 1"
       inkscape:vp_y="0 : 1000 : 0"
       inkscape:vp_x="0 : 0.5 : 1"
       sodipodi:type="inkscape:persp3d" />
    <inkscape:perspective
       id="perspective3679-7"
       inkscape:persp3d-origin="0.5 : 0.33333333 : 1"
       inkscape:vp_z="1 : 0.5 : 1"
       inkscape:vp_y="0 : 1000 : 0"
       inkscape:vp_x="0 : 0.5 : 1"
       sodipodi:type="inkscape:persp3d" />
    <inkscape:perspective
       id="perspective2844"
       inkscape:persp3d-origin="0.5 : 0.33333333 : 1"
       inkscape:vp_z="1 : 0.5 : 1"
       inkscape:vp_y="0 : 1000 : 0"
       inkscape:vp_x="0 : 0.5 : 1"
       sodipodi:type="inkscape:persp3d" />
    <inkscape:perspective
       id="perspective2866"
       inkscape:persp3d-origin="0.5 : 0.33333333 : 1"
       inkscape:vp_z="1 : 0.5 : 1"
       inkscape:vp_y="0 : 1000 : 0"
       inkscape:vp_x="0 : 0.5 : 1"
       sodipodi:type="inkscape:persp3d" />
    <inkscape:perspective
       id="perspective2888"
       inkscape:persp3d-origin="0.5 : 0.33333333 : 1"
       inkscape:vp_z="1 : 0.5 : 1"
       inkscape:vp_y="0 : 1000 : 0"
       inkscape:vp_x="0 : 0.5 : 1"
       sodipodi:type="inkscape:persp3d" />
    <marker
       inkscape:stockid="Arrow2Send"
       orient="auto"
       refY="0"
       refX="0"
       id="Arrow2Send-5"
       style="overflow:visible">
      <path
         id="path3744-5"
         style="font-size:12px;fill-rule:evenodd;stroke-width:0.625;stroke-linejoin:round"
         d="M 8.7185878,4.0337352 -2.2072895,0.01601326 8.7185884,-4.0017078 c -1.7454984,2.3720609 -1.7354408,5.6174519 -6e-7,8.035443 z"
         transform="matrix(-0.3,0,0,-0.3,0.69,0)" />
    </marker>
    <inkscape:perspective
       sodipodi:type="inkscape:persp3d"
       inkscape:vp_x="0 : 0.5 : 1"
       inkscape:vp_y="0 : 1000 : 0"
       inkscape:vp_z="1 : 0.5 : 1"
       inkscape:persp3d-origin="0.5 : 0.33333333 : 1"
       id="perspective4634" />
    <inkscape:perspective
       sodipodi:type="inkscape:persp3d"
       inkscape:vp_x="0 : 0.5 : 1"
       inkscape:vp_y="0 : 1000 : 0"
       inkscape:vp_z="1 : 0.5 : 1"
       inkscape:persp3d-origin="0.5 : 0.33333333 : 1"
       id="perspective3655" />
    <inkscape:perspective
       sodipodi:type="inkscape:persp3d"
       inkscape:vp_x="0 : 0.5 : 1"
       inkscape:vp_y="0 : 1000 : 0"
       inkscape:vp_z="1 : 0.5 : 1"
       inkscape:persp3d-origin="0.5 : 0.33333333 : 1"
       id="perspective3652" />
    <marker
       style="overflow:visible"
       id="Arrow2Send-5-0"
       refX="0"
       refY="0"
       orient="auto"
       inkscape:stockid="Arrow2Send">
      <path
         transform="matrix(-0.3,0,0,-0.3,0.69,0)"
         d="M 8.7185878,4.0337352 -2.2072895,0.01601326 8.7185884,-4.0017078 c -1.7454984,2.3720609 -1.7354408,5.6174519 -6e-7,8.035443 z"
         style="font-size:12px;fill-rule:evenodd;stroke-width:0.625;stroke-linejoin:round"
         id="path3744-5-7" />
    </marker>
    <inkscape:perspective
       sodipodi:type="inkscape:persp3d"
       inkscape:vp_x="0 : 0.5 : 1"
       inkscape:vp_y="0 : 1000 : 0"
       inkscape:vp_z="1 : 0.5 : 1"
       inkscape:persp3d-origin="0.5 : 0.33333333 : 1"
       id="perspective2888-3" />
    <inkscape:perspective
       sodipodi:type="inkscape:persp3d"
       inkscape:vp_x="0 : 0.5 : 1"
       inkscape:vp_y="0 : 1000 : 0"
       inkscape:vp_z="1 : 0.5 : 1"
       inkscape:persp3d-origin="0.5 : 0.33333333 : 1"
       id="perspective2866-4" />
    <inkscape:perspective
       sodipodi:type="inkscape:persp3d"
       inkscape:vp_x="0 : 0.5 : 1"
       inkscape:vp_y="0 : 1000 : 0"
       inkscape:vp_z="1 : 0.5 : 1"
       inkscape:persp3d-origin="0.5 : 0.33333333 : 1"
       id="perspective2844-4" />
    <inkscape:perspective
       sodipodi:type="inkscape:persp3d"
       inkscape:vp_x="0 : 0.5 : 1"
       inkscape:vp_y="0 : 1000 : 0"
       inkscape:vp_z="1 : 0.5 : 1"
       inkscape:persp3d-origin="0.5 : 0.33333333 : 1"
       id="perspective3679-7-7" />
    <inkscape:perspective
       sodipodi:type="inkscape:persp3d"
       inkscape:vp_x="0 : 0.5 : 1"
       inkscape:vp_y="0 : 1000 : 0"
       inkscape:vp_z="1 : 0.5 : 1"
       inkscape:persp3d-origin="0.5 : 0.33333333 : 1"
       id="perspective3679-4" />
    <inkscape:perspective
       sodipodi:type="inkscape:persp3d"
       inkscape:vp_x="0 : 0.5 : 1"
       inkscape:vp_y="0 : 1000 : 0"
       inkscape:vp_z="1 : 0.5 : 1"
       inkscape:persp3d-origin="0.5 : 0.33333333 : 1"
       id="perspective3650-5" />
    <inkscape:perspective
       sodipodi:type="inkscape:persp3d"
       inkscape:vp_x="0 : 0.5 : 1"
       inkscape:vp_y="0 : 1000 : 0"
       inkscape:vp_z="1 : 0.5 : 1"
       inkscape:persp3d-origin="0.5 : 0.33333333 : 1"
       id="perspective3628-2" />
    <inkscape:perspective
       id="perspective10-5"
       inkscape:persp3d-origin="372.04724 : 350.78739 : 1"
       inkscape:vp_z="1371.7932 : 339.99927 : 1"
       inkscape:vp_y="0 : 1000 : 0"
       inkscape:vp_x="0 : 526.18109 : 1"
       sodipodi:type="inkscape:persp3d" />
    <marker
       style="overflow:visible;"
       id="Arrow1Lend-7"
       refX="0.0"
       refY="0.0"
       orient="auto"
       inkscape:stockid="Arrow1Lend">
      <path
         transform="scale(0.8) rotate(180) translate(12.5,0)"
         style="fill-rule:evenodd;stroke:#000000;stroke-width:1.0pt;marker-start:none;"
         d="M 0.0,0.0 L 5.0,-5.0 L -12.5,0.0 L 5.0,5.0 L 0.0,0.0 z "
         id="path3714-4" />
    </marker>
    <marker
       style="overflow:visible;"
       id="Arrow2Mend-9"
       refX="0.0"
       refY="0.0"
       orient="auto"
       inkscape:stockid="Arrow2Mend">
      <path
         transform="scale(0.6) rotate(180) translate(0,0)"
         d="M 8.7185878,4.0337352 L -2.2072895,0.016013256 L 8.7185884,-4.0017078 C 6.9730900,-1.6296469 6.9831476,1.6157441 8.7185878,4.0337352 z "
         style="font-size:12.0;fill-rule:evenodd;stroke-width:0.62500000;stroke-linejoin:round;"
         id="path3738-3" />
    </marker>
    <marker
       style="overflow:visible"
       id="DiamondS-5"
       refX="0.0"
       refY="0.0"
       orient="auto"
       inkscape:stockid="DiamondS">
      <path
         transform="scale(0.2)"
         style="fill-rule:evenodd;stroke:#000000;stroke-width:1.0pt;marker-start:none"
         d="M 0,-7.0710768 L -7.0710894,0 L 0,7.0710589 L 7.0710462,0 L 0,-7.0710768 z "
         id="path3797-6" />
    </marker>
    <marker
       style="overflow:visible;"
       id="Arrow1Mend-7"
       refX="0.0"
       refY="0.0"
       orient="auto"
       inkscape:stockid="Arrow1Mend">
      <path
         transform="scale(0.4) rotate(180) translate(10,0)"
         style="fill-rule:evenodd;stroke:#000000;stroke-width:1.0pt;marker-start:none;"
         d="M 0.0,0.0 L 5.0,-5.0 L -12.5,0.0 L 5.0,5.0 L 0.0,0.0 z "
         id="path3720-6" />
    </marker>
    <marker
       style="overflow:visible;"
       id="Arrow2Send-55"
       refX="0.0"
       refY="0.0"
       orient="auto"
       inkscape:stockid="Arrow2Send">
      <path
         transform="scale(0.3) rotate(180) translate(-2.3,0)"
         d="M 8.7185878,4.0337352 L -2.2072895,0.016013256 L 8.7185884,-4.0017078 C 6.9730900,-1.6296469 6.9831476,1.6157441 8.7185878,4.0337352 z "
         style="font-size:12.0;fill-rule:evenodd;stroke-width:0.62500000;stroke-linejoin:round;"
         id="path3744-4" />
    </marker>
    <marker
       inkscape:stockid="Arrow2Send"
       orient="auto"
       refY="0.0"
       refX="0.0"
       id="Arrow2Send-55-7"
       style="overflow:visible;">
      <path
         id="path3744-4-1"
         style="font-size:12.0;fill-rule:evenodd;stroke-width:0.62500000;stroke-linejoin:round;"
         d="M 8.7185878,4.0337352 L -2.2072895,0.016013256 L 8.7185884,-4.0017078 C 6.9730900,-1.6296469 6.9831476,1.6157441 8.7185878,4.0337352 z "
         transform="scale(0.3) rotate(180) translate(-2.3,0)" />
    </marker>
    <marker
       inkscape:stockid="Arrow1Mend"
       orient="auto"
       refY="0.0"
       refX="0.0"
       id="Arrow1Mend-7-4"
       style="overflow:visible;">
      <path
         id="path3720-6-8"
         d="M 0.0,0.0 L 5.0,-5.0 L -12.5,0.0 L 5.0,5.0 L 0.0,0.0 z "
         style="fill-rule:evenodd;stroke:#000000;stroke-width:1.0pt;marker-start:none;"
         transform="scale(0.4) rotate(180) translate(10,0)" />
    </marker>
    <marker
       inkscape:stockid="DiamondS"
       orient="auto"
       refY="0.0"
       refX="0.0"
       id="DiamondS-5-5"
       style="overflow:visible">
      <path
         id="path3797-6-0"
         d="M 0,-7.0710768 L -7.0710894,0 L 0,7.0710589 L 7.0710462,0 L 0,-7.0710768 z "
         style="fill-rule:evenodd;stroke:#000000;stroke-width:1.0pt;marker-start:none"
         transform="scale(0.2)" />
    </marker>
    <marker
       inkscape:stockid="Arrow2Mend"
       orient="auto"
       refY="0.0"
       refX="0.0"
       id="Arrow2Mend-9-4"
       style="overflow:visible;">
      <path
         id="path3738-3-9"
         style="font-size:12.0;fill-rule:evenodd;stroke-width:0.62500000;stroke-linejoin:round;"
         d="M 8.7185878,4.0337352 L -2.2072895,0.016013256 L 8.7185884,-4.0017078 C 6.9730900,-1.6296469 6.9831476,1.6157441 8.7185878,4.0337352 z "
         transform="scale(0.6) rotate(180) translate(0,0)" />
    </marker>
    <marker
       inkscape:stockid="Arrow1Lend"
       orient="auto"
       refY="0.0"
       refX="0.0"
       id="Arrow1Lend-7-6"
       style="overflow:visible;">
      <path
         id="path3714-4-6"
         d="M 0.0,0.0 L 5.0,-5.0 L -12.5,0.0 L 5.0,5.0 L 0.0,0.0 z "
         style="fill-rule:evenodd;stroke:#000000;stroke-width:1.0pt;marker-start:none;"
         transform="scale(0.8) rotate(180) translate(12.5,0)" />
    </marker>
    <inkscape:perspective
       sodipodi:type="inkscape:persp3d"
       inkscape:vp_x="0 : 526.18109 : 1"
       inkscape:vp_y="0 : 1000 : 0"
       inkscape:vp_z="1371.7932 : 339.99927 : 1"
       inkscape:persp3d-origin="372.04724 : 350.78739 : 1"
       id="perspective10-5-2" />
    <inkscape:perspective
       id="perspective3628-2-9"
       inkscape:persp3d-origin="0.5 : 0.33333333 : 1"
       inkscape:vp_z="1 : 0.5 : 1"
       inkscape:vp_y="0 : 1000 : 0"
       inkscape:vp_x="0 : 0.5 : 1"
       sodipodi:type="inkscape:persp3d" />
    <inkscape:perspective
       id="perspective3650-5-8"
       inkscape:persp3d-origin="0.5 : 0.33333333 : 1"
       inkscape:vp_z="1 : 0.5 : 1"
       inkscape:vp_y="0 : 1000 : 0"
       inkscape:vp_x="0 : 0.5 : 1"
       sodipodi:type="inkscape:persp3d" />
    <inkscape:perspective
       id="perspective3679-4-6"
       inkscape:persp3d-origin="0.5 : 0.33333333 : 1"
       inkscape:vp_z="1 : 0.5 : 1"
       inkscape:vp_y="0 : 1000 : 0"
       inkscape:vp_x="0 : 0.5 : 1"
       sodipodi:type="inkscape:persp3d" />
    <inkscape:perspective
       id="perspective3679-7-7-0"
       inkscape:persp3d-origin="0.5 : 0.33333333 : 1"
       inkscape:vp_z="1 : 0.5 : 1"
       inkscape:vp_y="0 : 1000 : 0"
       inkscape:vp_x="0 : 0.5 : 1"
       sodipodi:type="inkscape:persp3d" />
    <inkscape:perspective
       id="perspective2844-4-2"
       inkscape:persp3d-origin="0.5 : 0.33333333 : 1"
       inkscape:vp_z="1 : 0.5 : 1"
       inkscape:vp_y="0 : 1000 : 0"
       inkscape:vp_x="0 : 0.5 : 1"
       sodipodi:type="inkscape:persp3d" />
    <inkscape:perspective
       id="perspective2866-4-9"
       inkscape:persp3d-origin="0.5 : 0.33333333 : 1"
       inkscape:vp_z="1 : 0.5 : 1"
       inkscape:vp_y="0 : 1000 : 0"
       inkscape:vp_x="0 : 0.5 : 1"
       sodipodi:type="inkscape:persp3d" />
    <inkscape:perspective
       id="perspective2888-3-4"
       inkscape:persp3d-origin="0.5 : 0.33333333 : 1"
       inkscape:vp_z="1 : 0.5 : 1"
       inkscape:vp_y="0 : 1000 : 0"
       inkscape:vp_x="0 : 0.5 : 1"
       sodipodi:type="inkscape:persp3d" />
    <marker
       inkscape:stockid="Arrow2Send"
       orient="auto"
       refY="0"
       refX="0"
       id="Arrow2Send-5-0-3"
       style="overflow:visible">
      <path
         id="path3744-5-7-1"
         style="font-size:12px;fill-rule:evenodd;stroke-width:0.625;stroke-linejoin:round"
         d="M 8.7185878,4.0337352 -2.2072895,0.01601326 8.7185884,-4.0017078 c -1.7454984,2.3720609 -1.7354408,5.6174519 -6e-7,8.035443 z"
         transform="matrix(-0.3,0,0,-0.3,0.69,0)" />
    </marker>
    <inkscape:perspective
       id="perspective3652-4"
       inkscape:persp3d-origin="0.5 : 0.33333333 : 1"
       inkscape:vp_z="1 : 0.5 : 1"
       inkscape:vp_y="0 : 1000 : 0"
       inkscape:vp_x="0 : 0.5 : 1"
       sodipodi:type="inkscape:persp3d" />
    <inkscape:perspective
       id="perspective3655-8"
       inkscape:persp3d-origin="0.5 : 0.33333333 : 1"
       inkscape:vp_z="1 : 0.5 : 1"
       inkscape:vp_y="0 : 1000 : 0"
       inkscape:vp_x="0 : 0.5 : 1"
       sodipodi:type="inkscape:persp3d" />
    <inkscape:perspective
       id="perspective4634-8"
       inkscape:persp3d-origin="0.5 : 0.33333333 : 1"
       inkscape:vp_z="1 : 0.5 : 1"
       inkscape:vp_y="0 : 1000 : 0"
       inkscape:vp_x="0 : 0.5 : 1"
       sodipodi:type="inkscape:persp3d" />
    <marker
       style="overflow:visible"
       id="Arrow2Send-5-8"
       refX="0"
       refY="0"
       orient="auto"
       inkscape:stockid="Arrow2Send">
      <path
         transform="matrix(-0.3,0,0,-0.3,0.69,0)"
         d="M 8.7185878,4.0337352 -2.2072895,0.01601326 8.7185884,-4.0017078 c -1.7454984,2.3720609 -1.7354408,5.6174519 -6e-7,8.035443 z"
         style="font-size:12px;fill-rule:evenodd;stroke-width:0.625;stroke-linejoin:round"
         id="path3744-5-6" />
    </marker>
    <inkscape:perspective
       sodipodi:type="inkscape:persp3d"
       inkscape:vp_x="0 : 0.5 : 1"
       inkscape:vp_y="0 : 1000 : 0"
       inkscape:vp_z="1 : 0.5 : 1"
       inkscape:persp3d-origin="0.5 : 0.33333333 : 1"
       id="perspective2888-7" />
    <inkscape:perspective
       sodipodi:type="inkscape:persp3d"
       inkscape:vp_x="0 : 0.5 : 1"
       inkscape:vp_y="0 : 1000 : 0"
       inkscape:vp_z="1 : 0.5 : 1"
       inkscape:persp3d-origin="0.5 : 0.33333333 : 1"
       id="perspective2866-0" />
    <inkscape:perspective
       sodipodi:type="inkscape:persp3d"
       inkscape:vp_x="0 : 0.5 : 1"
       inkscape:vp_y="0 : 1000 : 0"
       inkscape:vp_z="1 : 0.5 : 1"
       inkscape:persp3d-origin="0.5 : 0.33333333 : 1"
       id="perspective2844-3" />
    <inkscape:perspective
       sodipodi:type="inkscape:persp3d"
       inkscape:vp_x="0 : 0.5 : 1"
       inkscape:vp_y="0 : 1000 : 0"
       inkscape:vp_z="1 : 0.5 : 1"
       inkscape:persp3d-origin="0.5 : 0.33333333 : 1"
       id="perspective3679-7-4" />
    <inkscape:perspective
       sodipodi:type="inkscape:persp3d"
       inkscape:vp_x="0 : 0.5 : 1"
       inkscape:vp_y="0 : 1000 : 0"
       inkscape:vp_z="1 : 0.5 : 1"
       inkscape:persp3d-origin="0.5 : 0.33333333 : 1"
       id="perspective3679-74" />
    <inkscape:perspective
       sodipodi:type="inkscape:persp3d"
       inkscape:vp_x="0 : 0.5 : 1"
       inkscape:vp_y="0 : 1000 : 0"
       inkscape:vp_z="1 : 0.5 : 1"
       inkscape:persp3d-origin="0.5 : 0.33333333 : 1"
       id="perspective3650-4" />
    <inkscape:perspective
       sodipodi:type="inkscape:persp3d"
       inkscape:vp_x="0 : 0.5 : 1"
       inkscape:vp_y="0 : 1000 : 0"
       inkscape:vp_z="1 : 0.5 : 1"
       inkscape:persp3d-origin="0.5 : 0.33333333 : 1"
       id="perspective3628-5" />
    <inkscape:perspective
       id="perspective10-2"
       inkscape:persp3d-origin="372.04724 : 350.78739 : 1"
       inkscape:vp_z="1371.7932 : 339.99927 : 1"
       inkscape:vp_y="0 : 1000 : 0"
       inkscape:vp_x="0 : 526.18109 : 1"
       sodipodi:type="inkscape:persp3d" />
    <marker
       style="overflow:visible;"
       id="Arrow1Lend-4"
       refX="0.0"
       refY="0.0"
       orient="auto"
       inkscape:stockid="Arrow1Lend">
      <path
         transform="scale(0.8) rotate(180) translate(12.5,0)"
         style="fill-rule:evenodd;stroke:#000000;stroke-width:1.0pt;marker-start:none;"
         d="M 0.0,0.0 L 5.0,-5.0 L -12.5,0.0 L 5.0,5.0 L 0.0,0.0 z "
         id="path3714-5" />
    </marker>
    <marker
       style="overflow:visible;"
       id="Arrow2Mend-3"
       refX="0.0"
       refY="0.0"
       orient="auto"
       inkscape:stockid="Arrow2Mend">
      <path
         transform="scale(0.6) rotate(180) translate(0,0)"
         d="M 8.7185878,4.0337352 L -2.2072895,0.016013256 L 8.7185884,-4.0017078 C 6.9730900,-1.6296469 6.9831476,1.6157441 8.7185878,4.0337352 z "
         style="font-size:12.0;fill-rule:evenodd;stroke-width:0.62500000;stroke-linejoin:round;"
         id="path3738-7" />
    </marker>
    <marker
       style="overflow:visible"
       id="DiamondS-6"
       refX="0.0"
       refY="0.0"
       orient="auto"
       inkscape:stockid="DiamondS">
      <path
         transform="scale(0.2)"
         style="fill-rule:evenodd;stroke:#000000;stroke-width:1.0pt;marker-start:none"
         d="M 0,-7.0710768 L -7.0710894,0 L 0,7.0710589 L 7.0710462,0 L 0,-7.0710768 z "
         id="path3797-9" />
    </marker>
    <marker
       style="overflow:visible;"
       id="Arrow1Mend-6"
       refX="0.0"
       refY="0.0"
       orient="auto"
       inkscape:stockid="Arrow1Mend">
      <path
         transform="scale(0.4) rotate(180) translate(10,0)"
         style="fill-rule:evenodd;stroke:#000000;stroke-width:1.0pt;marker-start:none;"
         d="M 0.0,0.0 L 5.0,-5.0 L -12.5,0.0 L 5.0,5.0 L 0.0,0.0 z "
         id="path3720-5" />
    </marker>
    <marker
       style="overflow:visible;"
       id="Arrow2Send-554"
       refX="0.0"
       refY="0.0"
       orient="auto"
       inkscape:stockid="Arrow2Send">
      <path
         transform="scale(0.3) rotate(180) translate(-2.3,0)"
         d="M 8.7185878,4.0337352 L -2.2072895,0.016013256 L 8.7185884,-4.0017078 C 6.9730900,-1.6296469 6.9831476,1.6157441 8.7185878,4.0337352 z "
         style="font-size:12.0;fill-rule:evenodd;stroke-width:0.62500000;stroke-linejoin:round;"
         id="path3744-7" />
    </marker>
    <marker
       style="overflow:visible"
       id="Arrow1Mend-6-1"
       refX="0"
       refY="0"
       orient="auto"
       inkscape:stockid="Arrow1Mend">
      <path
         inkscape:connector-curvature="0"
         transform="matrix(-0.4,0,0,-0.4,-4,0)"
         style="fill-rule:evenodd;stroke:#000000;stroke-width:1pt;marker-start:none"
         d="M 0,0 5,-5 -12.5,0 5,5 0,0 z"
         id="path3720-5-1" />
    </marker>
    <marker
       style="overflow:visible"
       id="Arrow2Mend-6"
       refX="0"
       refY="0"
       orient="auto"
       inkscape:stockid="Arrow2Mend">
      <path
         inkscape:connector-curvature="0"
         transform="scale(-0.6,-0.6)"
         d="M 8.7185878,4.0337352 -2.2072895,0.01601326 8.7185884,-4.0017078 c -1.7454984,2.3720609 -1.7354408,5.6174519 -6e-7,8.035443 z"
         style="font-size:12px;fill-rule:evenodd;stroke-width:0.625;stroke-linejoin:round"
         id="path3738-8" />
    </marker>
    <marker
       style="overflow:visible"
       id="Arrow2Mend-6-8"
       refX="0"
       refY="0"
       orient="auto"
       inkscape:stockid="Arrow2Mend">
      <path
         inkscape:connector-curvature="0"
         transform="scale(-0.6,-0.6)"
         d="M 8.7185878,4.0337352 -2.2072895,0.01601326 8.7185884,-4.0017078 c -1.7454984,2.3720609 -1.7354408,5.6174519 -6e-7,8.035443 z"
         style="font-size:12px;fill-rule:evenodd;stroke-width:0.625;stroke-linejoin:round"
         id="path3738-8-1" />
    </marker>
  </defs>
  <sodipodi:namedview
     id="base"
     pagecolor="#ffffff"
     bordercolor="#666666"
     borderopacity="1.0"
     inkscape:pageopacity="0.0"
     inkscape:pageshadow="2"
     inkscape:zoom="24.218408"
     inkscape:cx="-4.9620539"
     inkscape:cy="8.754634"
     inkscape:document-units="px"
     inkscape:current-layer="layer1"
     showgrid="false"
     inkscape:window-width="1600"
     inkscape:window-height="1181"
     inkscape:window-x="1596"
     inkscape:window-y="-4"
     inkscape:window-maximized="1" />
  <metadata
     id="metadata7">
    <rdf:RDF>
      <cc:Work
         rdf:about="">
        <dc:format>image/svg+xml</dc:format>
        <dc:type
           rdf:resource="http://purl.org/dc/dcmitype/StillImage" />
        <dc:title></dc:title>
      </cc:Work>
    </rdf:RDF>
  </metadata>
  <g
     inkscape:label="Layer 1"
     inkscape:groupmode="layer"
     id="layer1"
     transform="translate(0,-1036.3622)">
    <path
       style="fill:#808080;fill-opacity:1;stroke:none"
       d="m 0.33771524,1036.6339 c -0.2800975,0.1142 -0.16722247,0.363 -0.189643,0.5492 0,2.2435 0,4.4871 0,6.7308 0.00324,0.196 0.34000859,0.2985 0.5631321,0.1929 0.70219136,-0.2168 1.22885616,-0.6261 1.80947586,-0.9648 0.4041157,-0.2402 0.8394772,-0.5421 1.4036899,-0.5446 0.4149622,0.011 0.7124319,0.2486 1.0401666,0.3989 0.6810151,0.3495 1.412922,0.6648 2.225558,0.8346 0.2937477,0.042 0.4439067,-0.1808 0.5958705,-0.3175 0.4247079,-0.4485 0.5272687,-1.006 0.5134256,-1.5319 -0.018002,-0.1818 -0.3109236,-0.2398 -0.5298312,-0.2075 -0.2851821,0.028 -0.5912339,-0.032 -0.7719797,-0.1965 -0.4093869,-0.3512 -0.6897794,-0.8185 -0.5631325,-1.2774 0.1181815,-0.3008 0.5307989,-0.4886 0.9449035,-0.5464 0.4242452,-0.068 0.8781966,-0.049 1.3088241,-0.025 0.243461,0.054 0.5193429,-0.079 0.4882296,-0.2647 -0.00798,-0.3795 0.015873,-0.7615 -0.011915,-1.1394 -0.03162,-0.1932 -0.3460338,-0.2181 -0.5694341,-0.2142 -0.7688235,-0.044 -1.5703821,-0.3371 -1.8583357,-0.8643 -0.1147025,-0.1693 -0.095337,-0.3644 -0.2012374,-0.534 -0.2014382,-0.1659 -0.539212,-0.081 -0.8090879,-0.1029 -1.7543657,0 -3.5105428,-0.011 -5.263778,0.011 -0.0416333,0.011 -0.0832657,0.014 -0.12489892,0.02 z"
       id="path3976"
       inkscape:connector-curvature="0" />
    <path
       style="fill:#4d4d4d;fill-opacity:1;stroke:none"
       d="m 3.7811021,1042.4597 c -0.4142734,0.027 -0.7703303,0.2092 -1.0856854,0.3871 -0.6369483,0.3618 -1.1977559,0.797 -1.91796149,1.0787 -0.23137778,0.096 -0.6108896,0.1173 -0.62938297,0.3504 0.008088,0.3628 -0.0159898,0.7281 0.0119173,1.0893 0.0284871,0.1821 0.32354151,0.2238 0.54044855,0.2027 2.71186728,0 5.42373458,0 8.13560268,0 0.2545182,-0.011 0.3819177,-0.1907 0.3403638,-0.3505 -0.0079,-0.3696 0.015793,-0.7417 -0.011915,-1.1096 -0.032328,-0.1966 -0.3535833,-0.2146 -0.5768875,-0.2242 -1.0219333,-0.068 -2.0236932,-0.3077 -2.8835672,-0.7056 -0.4593828,-0.1904 -0.8564329,-0.4525 -1.3183917,-0.6416 -0.185107,-0.07 -0.3980911,-0.082 -0.6045382,-0.077 z"
       id="path3964"
       inkscape:connector-curvature="0" />
    <path
       style="fill:#808080;fill-opacity:1;stroke:none"
       d="m 7.9805771,1039.5631 c -0.5897611,0.011 -1.2740782,0.1074 -1.6057547,0.4853 -0.3389341,0.3985 -0.1492683,0.8964 0.1349237,1.2816 0.2146352,0.2843 0.5588733,0.5922 1.0625597,0.5921 0.54651,0.02 1.0178904,-0.2132 1.4542062,-0.4132 0.2415854,-0.14 0.1207417,-0.3799 0.1498926,-0.5701 -0.013468,-0.3766 0.028738,-0.7562 -0.028157,-1.131 -0.047487,-0.1837 -0.332598,-0.2328 -0.5598197,-0.2319 -0.2021872,-0.011 -0.4051305,-0.015 -0.6078511,-0.013 z"
       id="path3966"
       inkscape:connector-curvature="0" />
    <path
       style="fill:#0053ff;fill-opacity:1;stroke:none"
       d="m 6.5859964,1036.6339 c -0.260829,0.1007 -0.1825719,0.3221 -0.1258766,0.4877 0.1882022,0.555 0.897101,0.9589 1.6695214,1.0833 0.2829343,0.041 0.5966961,0.09 0.8729003,0.019 0.2659942,-0.1146 0.1480487,-0.358 0.1738631,-0.5389 -0.011546,-0.2966 0.023445,-0.597 -0.017881,-0.8912 -0.046785,-0.1807 -0.3466407,-0.2004 -0.5609899,-0.1845 -0.637032,0.011 -1.2776925,-0.011 -1.9124634,0.011 -0.03303,0.011 -0.066049,0.011 -0.099078,0.016 z"
       id="path3968"
       inkscape:connector-curvature="0" />
    <path
       style="fill:#808000;fill-opacity:1;stroke:none"
       d="m 8.7283831,1041.4932 c -0.2057571,0.074 -0.4485984,0.1336 -0.5928251,0.2637 -0.1047099,0.1858 -0.027598,0.3951 -0.057263,0.5912 -0.021983,0.4303 -0.2177505,0.8597 -0.5772108,1.2106 -0.1399319,0.1676 0.057516,0.3867 0.3277405,0.3892 0.3540418,0.037 0.7133231,0.1085 1.0719693,0.084 0.2521558,-0.025 0.3036761,-0.2279 0.2756081,-0.3769 -0.00744,-0.6545 0.017628,-1.3098 -0.022358,-1.9637 -0.034923,-0.1428 -0.2220869,-0.2242 -0.4256641,-0.1982 z"
       id="path3970"
       inkscape:connector-curvature="0" />
    <rect
       style="fill:none;stroke:#000000;stroke-width:0.38017887;stroke-linecap:butt;stroke-linejoin:miter;stroke-miterlimit:4;stroke-dasharray:none"
       id="rect2844-1"
       width="8.8109035"
       height="8.817627"
       x="0.25199741"
       y="1036.6782" />
    <path
       style="color:#000000;fill:none;stroke:#000000;stroke-width:0.38017887;stroke-linecap:round;stroke-linejoin:round;stroke-miterlimit:4;stroke-opacity:1;stroke-dasharray:none;stroke-dashoffset:0;marker:none;visibility:visible;display:inline;overflow:visible;enable-background:accumulate"
       d="m 0.44586974,1044.1086 c 1.68691176,-0.4057 2.76991686,-2.1689 4.16469246,-1.3902 1.3947755,0.7788 2.432234,1.1549 4.2827021,1.2626"
       id="path3108"
       sodipodi:nodetypes="czz"
       inkscape:connector-curvature="0" />
    <path
       style="color:#000000;fill:#808080;stroke:#000000;stroke-width:0.38017887000000000;stroke-linecap:round;stroke-linejoin:round;stroke-miterlimit:4;stroke-opacity:1;stroke-dasharray:none;stroke-dashoffset:0;marker:none;visibility:visible;display:inline;overflow:visible;enable-background:accumulate"
       d="m 6.4968477,1036.747 c 0,0.9364 1.134628,1.4505 2.3945531,1.4505"
       id="path3110"
       sodipodi:nodetypes="cc"
       inkscape:connector-curvature="0" />
    <path
       style="color:#000000;fill:none;stroke:#000000;stroke-width:0.38017887;stroke-linecap:round;stroke-linejoin:round;stroke-miterlimit:4;stroke-opacity:1;stroke-dasharray:none;stroke-dashoffset:0;marker:none;visibility:visible;display:inline;overflow:visible;enable-background:accumulate"
       d="m 1.2830986,1041.9093 c 0.7658183,-0.3385 1.3047274,0.1393 1.3047274,0.1393 0,0 0.5105454,-0.5574 1.0778178,-0.2389"
       id="path3112"
       inkscape:connector-curvature="0" />
    <path
       style="color:#000000;fill:none;stroke:#000000;stroke-width:0.38017887;stroke-linecap:round;stroke-linejoin:round;stroke-miterlimit:4;stroke-opacity:1;stroke-dasharray:none;stroke-dashoffset:0;marker:none;visibility:visible;display:inline;overflow:visible;enable-background:accumulate"
       d="m 7.461626,1043.6876 c 0.9076364,-0.6569 0.7225474,-1.7792 0.7225474,-1.7792"
       id="path3114"
       sodipodi:nodetypes="cc"
       inkscape:connector-curvature="0" />
    <path
       style="color:#000000;fill:none;stroke:#000000;stroke-width:0.38017887;stroke-linecap:round;stroke-linejoin:round;stroke-miterlimit:4;stroke-opacity:1;stroke-dasharray:none;stroke-dashoffset:0;marker:none;visibility:visible;display:inline;overflow:visible;enable-background:accumulate"
       d="m 8.9499918,1041.4598 c -0.9845131,0.4777 -1.8364017,0.6927 -2.4527304,-0.3109 -0.6163275,-1.0037 0.1260843,-1.7148 2.3922765,-1.475"
       id="path3116"
       sodipodi:nodetypes="czz"
       inkscape:connector-curvature="0" />
    <path
       transform="matrix(0.86201634,0,0,0.86201634,2.9409443,1036.8195)"
       sodipodi:open="true"
       sodipodi:end="6.1086524"
       sodipodi:start="4.712389"
       d="m 7.8750001,1.53125 c 3.1999049,1e-7 5.9379189,2.2974662 6.4935759,5.4487574"
       sodipodi:ry="6.59375"
       sodipodi:rx="6.59375"
       sodipodi:cy="8.125"
       sodipodi:cx="7.875"
       id="use5301"
       style="fill:none;stroke:#000000;stroke-width:0.5;stroke-miterlimit:4;stroke-dasharray:none;marker-start:none;marker-end:url(#Arrow2Mend-6)"
       sodipodi:type="arc" />
    <path
       style="fill:#ffffff;fill-opacity:1;stroke:none"
       d="m 7.3802844,1043.7193 c -0.2671128,0.1089 -0.1594704,0.3461 -0.1808515,0.5237 0,2.1396 0,4.2791 0,6.4188 0.00309,0.1869 0.3242465,0.2846 0.5370264,0.1839 0.6696392,-0.2067 1.171889,-0.597 1.7255923,-0.92 0.3853818,-0.2291 0.8005604,-0.517 1.3386174,-0.5193 0.395726,0.011 0.679405,0.237 0.991947,0.3804 0.649445,0.3333 1.347422,0.6339 2.122386,0.7958 0.28013,0.04 0.423328,-0.1724 0.568247,-0.3027 0.405019,-0.4278 0.502825,-0.9594 0.489624,-1.461 -0.01717,-0.1733 -0.29651,-0.2286 -0.505269,-0.1978 -0.271962,0.027 -0.563826,-0.03 -0.736193,-0.1874 -0.390408,-0.3349 -0.657802,-0.7805 -0.537026,-1.2182 0.112703,-0.2868 0.506192,-0.4659 0.901099,-0.521 0.404578,-0.065 0.837486,-0.046 1.24815,-0.024 0.232175,0.052 0.495267,-0.076 0.465596,-0.2524 -0.0076,-0.3619 0.01514,-0.7262 -0.01136,-1.0866 -0.03015,-0.1843 -0.329992,-0.208 -0.543036,-0.2043 -0.733183,-0.042 -1.497583,-0.3214 -1.772187,-0.8242 -0.109386,-0.1614 -0.09092,-0.3475 -0.191909,-0.5093 -0.1921,-0.1581 -0.514215,-0.078 -0.77158,-0.098 -1.673037,0 -3.3478015,-0.011 -5.0197603,0.011 -0.039703,0.011 -0.079406,0.013 -0.1191089,0.019 z"
       id="path3976-9"
       inkscape:connector-curvature="0" />
    <path
       style="fill:#000000;fill-opacity:1;stroke:none"
       d="m 10.664043,1049.275 c -0.395069,0.026 -0.7346194,0.1995 -1.0353553,0.3691 -0.6074207,0.3451 -1.1422304,0.7601 -1.8290488,1.0288 -0.2206516,0.092 -0.58257,0.1118 -0.600206,0.3341 0.00771,0.346 -0.015249,0.6944 0.011365,1.0388 0.027167,0.1737 0.3085428,0.2135 0.5153945,0.1933 2.5861508,0 5.1723018,0 7.7584528,0 0.242719,-0.011 0.364213,-0.1819 0.324585,-0.3342 -0.0075,-0.3525 0.01506,-0.7074 -0.01136,-1.0582 -0.03083,-0.1875 -0.337192,-0.2047 -0.550144,-0.2138 -0.974559,-0.065 -1.929879,-0.2934 -2.749891,-0.6729 -0.438087,-0.1815 -0.816731,-0.4315 -1.257274,-0.6119 -0.176526,-0.067 -0.379636,-0.079 -0.576513,-0.073 z"
       id="path3964-4"
       inkscape:connector-curvature="0" />
    <path
       style="fill:#b3b3b3;fill-opacity:1;stroke:none"
       d="m 14.668839,1046.5127 c -0.562421,0.011 -1.215015,0.1024 -1.531315,0.4628 -0.323222,0.3801 -0.142349,0.8548 0.128669,1.2222 0.204685,0.2711 0.532965,0.5647 1.013301,0.5646 0.521175,0.019 0.970703,-0.2033 1.386793,-0.3941 0.230385,-0.1334 0.115144,-0.3622 0.142943,-0.5436 -0.01284,-0.3592 0.02741,-0.7211 -0.02685,-1.0786 -0.04529,-0.1752 -0.317179,-0.222 -0.533868,-0.2211 -0.192814,-0.011 -0.386349,-0.014 -0.579672,-0.012 z"
       id="path3966-6"
       inkscape:connector-curvature="0" />
    <path
       style="fill:#000000;fill-opacity:1;stroke:none"
       d="m 13.338908,1043.7193 c -0.248737,0.096 -0.174108,0.3072 -0.120041,0.4651 0.179477,0.5293 0.855513,0.9144 1.592126,1.033 0.269818,0.039 0.569034,0.086 0.832434,0.018 0.253664,-0.1092 0.141186,-0.3413 0.165803,-0.5138 -0.01101,-0.2829 0.02236,-0.5694 -0.01705,-0.8499 -0.04462,-0.1723 -0.330571,-0.1912 -0.534984,-0.176 -0.6075,0.011 -1.218461,-0.011 -1.823805,0.011 -0.0315,0.011 -0.06299,0.011 -0.09449,0.015 z"
       id="path3968-9"
       inkscape:connector-curvature="0" />
    <path
       style="fill:#808000;fill-opacity:1;stroke:none"
       d="m 15.381978,1048.3534 c -0.196218,0.07 -0.427802,0.1273 -0.565343,0.2514 -0.09986,0.1772 -0.02632,0.3767 -0.05461,0.5638 -0.02096,0.4103 -0.207656,0.8198 -0.550453,1.1545 -0.133445,0.1598 0.05485,0.3688 0.312547,0.3711 0.33763,0.036 0.680255,0.1035 1.022275,0.08 0.240467,-0.024 0.289599,-0.2173 0.262832,-0.3594 -0.0071,-0.6242 0.01681,-1.2491 -0.02132,-1.8727 -0.0333,-0.1361 -0.211792,-0.2138 -0.405932,-0.189 z"
       id="path3970-2"
       inkscape:connector-curvature="0" />
    <rect
       style="fill:none;stroke:#000000;stroke-width:0.36255458;stroke-linecap:butt;stroke-linejoin:miter;stroke-miterlimit:4;stroke-dasharray:none"
       id="rect2844-1-2"
       width="8.4024487"
       height="8.4088602"
       x="7.2985401"
       y="1043.7616" />
    <path
       style="color:#000000;fill:none;stroke:#000000;stroke-width:0.36255458;stroke-linecap:round;stroke-linejoin:round;stroke-miterlimit:4;stroke-opacity:1;stroke-dasharray:none;stroke-dashoffset:0;marker:none;visibility:visible;display:inline;overflow:visible;enable-background:accumulate"
       d="m 7.4834251,1050.8474 c 1.60871,-0.3868 2.6415089,-2.0682 3.9716259,-1.3257 1.330117,0.7427 2.319481,1.1014 4.084165,1.2041"
       id="path3108-4"
       sodipodi:nodetypes="czz"
       inkscape:connector-curvature="0" />
    <path
       style="color:#000000;fill:none;stroke:#000000;stroke-width:0.36255458;stroke-linecap:round;stroke-linejoin:round;stroke-miterlimit:4;stroke-opacity:1;stroke-dasharray:none;stroke-dashoffset:0;marker:none;visibility:visible;display:inline;overflow:visible;enable-background:accumulate"
       d="m 13.253892,1043.8271 c 0,0.893 1.082029,1.3833 2.283547,1.3833"
       id="path3110-7"
       sodipodi:nodetypes="cc"
       inkscape:connector-curvature="0" />
    <path
       style="color:#000000;fill:none;stroke:#000000;stroke-width:0.36255458;stroke-linecap:round;stroke-linejoin:round;stroke-miterlimit:4;stroke-opacity:1;stroke-dasharray:none;stroke-dashoffset:0;marker:none;visibility:visible;display:inline;overflow:visible;enable-background:accumulate"
       d="m 8.2818418,1048.7502 c 0.7303165,-0.3229 1.2442429,0.1328 1.2442429,0.1328 0,0 0.4868773,-0.5316 1.0278523,-0.2278"
       id="path3112-7"
       inkscape:connector-curvature="0" />
    <path
       style="color:#000000;fill:#666666;stroke:#000000;stroke-width:0.36255458000000002;stroke-linecap:round;stroke-linejoin:round;stroke-miterlimit:4;stroke-opacity:1;stroke-dasharray:none;stroke-dashoffset:0;marker:none;visibility:visible;display:inline;overflow:visible;enable-background:accumulate"
       d="m 14.173945,1050.446 c 0.865561,-0.6264 0.689052,-1.6967 0.689052,-1.6967"
       id="path3114-5"
       sodipodi:nodetypes="cc"
       inkscape:connector-curvature="0" />
    <path
       style="color:#000000;fill:none;stroke:#000000;stroke-width:0.36255458;stroke-linecap:round;stroke-linejoin:round;stroke-miterlimit:4;stroke-opacity:1;stroke-dasharray:none;stroke-dashoffset:0;marker:none;visibility:visible;display:inline;overflow:visible;enable-background:accumulate"
       d="m 15.593314,1048.3214 c -0.938873,0.4556 -1.75127,0.6607 -2.339027,-0.2965 -0.587756,-0.9571 0.120239,-1.6352 2.281375,-1.4065"
       id="path3116-4"
       sodipodi:nodetypes="czz"
       inkscape:connector-curvature="0" />
    <path
       transform="matrix(0,0.86201634,0.86201634,0,0.12254553,1038.9726)"
       sodipodi:open="true"
       sodipodi:end="6.1086524"
       sodipodi:start="4.712389"
       d="m 7.8750001,1.53125 c 3.1999049,1e-7 5.9379189,2.2974662 6.4935759,5.4487574"
       sodipodi:ry="6.59375"
       sodipodi:rx="6.59375"
       sodipodi:cy="8.125"
       sodipodi:cx="7.875"
       id="use5301-2"
       style="fill:none;stroke:#000000;stroke-width:0.5;stroke-miterlimit:4;stroke-dasharray:none;marker-start:none;marker-end:url(#Arrow2Mend-6)"
       sodipodi:type="arc" />
  </g>
</svg>
