<?xml version="1.0" encoding="UTF-8" standalone="no"?>
<!-- Created with Inkscape (http://www.inkscape.org/) -->

<svg
   xmlns:svg="http://www.w3.org/2000/svg"
   xmlns="http://www.w3.org/2000/svg"
   xmlns:xlink="http://www.w3.org/1999/xlink"
   version="1.1"
   width="16"
   height="16"
   id="svg2">
  <defs
     id="defs4">
    <linearGradient
       id="linearGradient4268">
      <stop
         id="stop4270"
         style="stop-color:#000000;stop-opacity:1"
         offset="0" />
      <stop
         id="stop4272"
         style="stop-color:#000000;stop-opacity:0"
         offset="1" />
    </linearGradient>
    <marker
       refX="0"
       refY="0"
       orient="auto"
       id="Arrow2Send"
       style="overflow:visible">
      <path
         d="M 8.7185878,4.0337352 -2.2072895,0.01601326 8.7185884,-4.0017078 c -1.7454984,2.3720609 -1.7354408,5.6174519 -6e-7,8.035443 z"
         transform="matrix(-0.3,0,0,-0.3,0.69,0)"
         id="path3744"
         style="font-size:12px;fill-rule:evenodd;stroke-width:0.625;stroke-linejoin:round" />
    </marker>
    <marker
       refX="0"
       refY="0"
       orient="auto"
       id="Arrow1Mend"
       style="overflow:visible">
      <path
         d="M 0,0 5,-5 -12.5,0 5,5 0,0 z"
         transform="matrix(-0.4,0,0,-0.4,-4,0)"
         id="path3720"
         style="fill-rule:evenodd;stroke:#000000;stroke-width:1pt;marker-start:none" />
    </marker>
    <marker
       refX="0"
       refY="0"
       orient="auto"
       id="DiamondS"
       style="overflow:visible">
      <path
         d="M 0,-7.0710768 -7.0710894,0 0,7.0710589 7.0710462,0 0,-7.0710768 z"
         transform="scale(0.2,0.2)"
         id="path3797"
         style="fill-rule:evenodd;stroke:#000000;stroke-width:1pt;marker-start:none" />
    </marker>
    <marker
       refX="0"
       refY="0"
       orient="auto"
       id="Arrow2Mend"
       style="overflow:visible">
      <path
         d="M 8.7185878,4.0337352 -2.2072895,0.01601326 8.7185884,-4.0017078 c -1.7454984,2.3720609 -1.7354408,5.6174519 -6e-7,8.035443 z"
         transform="scale(-0.6,-0.6)"
         id="path3738"
         style="font-size:12px;fill-rule:evenodd;stroke-width:0.625;stroke-linejoin:round" />
    </marker>
    <marker
       refX="0"
       refY="0"
       orient="auto"
       id="Arrow1Lend"
       style="overflow:visible">
      <path
         d="M 0,0 5,-5 -12.5,0 5,5 0,0 z"
         transform="matrix(-0.8,0,0,-0.8,-10,0)"
         id="path3714"
         style="fill-rule:evenodd;stroke:#000000;stroke-width:1pt;marker-start:none" />
    </marker>
    <marker
       refX="0"
       refY="0"
       orient="auto"
       id="Arrow2Send-5"
       style="overflow:visible">
      <path
         d="M 8.7185878,4.0337352 -2.2072895,0.01601326 8.7185884,-4.0017078 c -1.7454984,2.3720609 -1.7354408,5.6174519 -6e-7,8.035443 z"
         transform="matrix(-0.3,0,0,-0.3,0.69,0)"
         id="path3744-5"
         style="font-size:12px;fill-rule:evenodd;stroke-width:0.625;stroke-linejoin:round" />
    </marker>
    <marker
       refX="0"
       refY="0"
       orient="auto"
       id="Arrow2Send-5-0"
       style="overflow:visible">
      <path
         d="M 8.7185878,4.0337352 -2.2072895,0.01601326 8.7185884,-4.0017078 c -1.7454984,2.3720609 -1.7354408,5.6174519 -6e-7,8.035443 z"
         transform="matrix(-0.3,0,0,-0.3,0.69,0)"
         id="path3744-5-7"
         style="font-size:12px;fill-rule:evenodd;stroke-width:0.625;stroke-linejoin:round" />
    </marker>
    <marker
       refX="0"
       refY="0"
       orient="auto"
       id="Arrow1Lend-7"
       style="overflow:visible">
      <path
         d="M 0,0 5,-5 -12.5,0 5,5 0,0 z"
         transform="matrix(-0.8,0,0,-0.8,-10,0)"
         id="path3714-4"
         style="fill-rule:evenodd;stroke:#000000;stroke-width:1pt;marker-start:none" />
    </marker>
    <marker
       refX="0"
       refY="0"
       orient="auto"
       id="Arrow2Mend-9"
       style="overflow:visible">
      <path
         d="M 8.7185878,4.0337352 -2.2072895,0.01601326 8.7185884,-4.0017078 c -1.7454984,2.3720609 -1.7354408,5.6174519 -6e-7,8.035443 z"
         transform="scale(-0.6,-0.6)"
         id="path3738-3"
         style="font-size:12px;fill-rule:evenodd;stroke-width:0.625;stroke-linejoin:round" />
    </marker>
    <marker
       refX="0"
       refY="0"
       orient="auto"
       id="DiamondS-5"
       style="overflow:visible">
      <path
         d="M 0,-7.0710768 -7.0710894,0 0,7.0710589 7.0710462,0 0,-7.0710768 z"
         transform="scale(0.2,0.2)"
         id="path3797-6"
         style="fill-rule:evenodd;stroke:#000000;stroke-width:1pt;marker-start:none" />
    </marker>
    <marker
       refX="0"
       refY="0"
       orient="auto"
       id="Arrow1Mend-7"
       style="overflow:visible">
      <path
         d="M 0,0 5,-5 -12.5,0 5,5 0,0 z"
         transform="matrix(-0.4,0,0,-0.4,-4,0)"
         id="path3720-6"
         style="fill-rule:evenodd;stroke:#000000;stroke-width:1pt;marker-start:none" />
    </marker>
    <marker
       refX="0"
       refY="0"
       orient="auto"
       id="Arrow2Send-55"
       style="overflow:visible">
      <path
         d="M 8.7185878,4.0337352 -2.2072895,0.01601326 8.7185884,-4.0017078 c -1.7454984,2.3720609 -1.7354408,5.6174519 -6e-7,8.035443 z"
         transform="matrix(-0.3,0,0,-0.3,0.69,0)"
         id="path3744-4"
         style="font-size:12px;fill-rule:evenodd;stroke-width:0.625;stroke-linejoin:round" />
    </marker>
    <marker
       refX="0"
       refY="0"
       orient="auto"
       id="Arrow2Send-55-7"
       style="overflow:visible">
      <path
         d="M 8.7185878,4.0337352 -2.2072895,0.01601326 8.7185884,-4.0017078 c -1.7454984,2.3720609 -1.7354408,5.6174519 -6e-7,8.035443 z"
         transform="matrix(-0.3,0,0,-0.3,0.69,0)"
         id="path3744-4-1"
         style="font-size:12px;fill-rule:evenodd;stroke-width:0.625;stroke-linejoin:round" />
    </marker>
    <marker
       refX="0"
       refY="0"
       orient="auto"
       id="Arrow1Mend-7-4"
       style="overflow:visible">
      <path
         d="M 0,0 5,-5 -12.5,0 5,5 0,0 z"
         transform="matrix(-0.4,0,0,-0.4,-4,0)"
         id="path3720-6-8"
         style="fill-rule:evenodd;stroke:#000000;stroke-width:1pt;marker-start:none" />
    </marker>
    <marker
       refX="0"
       refY="0"
       orient="auto"
       id="DiamondS-5-5"
       style="overflow:visible">
      <path
         d="M 0,-7.0710768 -7.0710894,0 0,7.0710589 7.0710462,0 0,-7.0710768 z"
         transform="scale(0.2,0.2)"
         id="path3797-6-0"
         style="fill-rule:evenodd;stroke:#000000;stroke-width:1pt;marker-start:none" />
    </marker>
    <marker
       refX="0"
       refY="0"
       orient="auto"
       id="Arrow2Mend-9-4"
       style="overflow:visible">
      <path
         d="M 8.7185878,4.0337352 -2.2072895,0.01601326 8.7185884,-4.0017078 c -1.7454984,2.3720609 -1.7354408,5.6174519 -6e-7,8.035443 z"
         transform="scale(-0.6,-0.6)"
         id="path3738-3-9"
         style="font-size:12px;fill-rule:evenodd;stroke-width:0.625;stroke-linejoin:round" />
    </marker>
    <marker
       refX="0"
       refY="0"
       orient="auto"
       id="Arrow1Lend-7-6"
       style="overflow:visible">
      <path
         d="M 0,0 5,-5 -12.5,0 5,5 0,0 z"
         transform="matrix(-0.8,0,0,-0.8,-10,0)"
         id="path3714-4-6"
         style="fill-rule:evenodd;stroke:#000000;stroke-width:1pt;marker-start:none" />
    </marker>
    <marker
       refX="0"
       refY="0"
       orient="auto"
       id="Arrow2Send-5-0-3"
       style="overflow:visible">
      <path
         d="M 8.7185878,4.0337352 -2.2072895,0.01601326 8.7185884,-4.0017078 c -1.7454984,2.3720609 -1.7354408,5.6174519 -6e-7,8.035443 z"
         transform="matrix(-0.3,0,0,-0.3,0.69,0)"
         id="path3744-5-7-1"
         style="font-size:12px;fill-rule:evenodd;stroke-width:0.625;stroke-linejoin:round" />
    </marker>
    <marker
       refX="0"
       refY="0"
       orient="auto"
       id="Arrow2Send-5-8"
       style="overflow:visible">
      <path
         d="M 8.7185878,4.0337352 -2.2072895,0.01601326 8.7185884,-4.0017078 c -1.7454984,2.3720609 -1.7354408,5.6174519 -6e-7,8.035443 z"
         transform="matrix(-0.3,0,0,-0.3,0.69,0)"
         id="path3744-5-6"
         style="font-size:12px;fill-rule:evenodd;stroke-width:0.625;stroke-linejoin:round" />
    </marker>
    <marker
       refX="0"
       refY="0"
       orient="auto"
       id="Arrow1Lend-4"
       style="overflow:visible">
      <path
         d="M 0,0 5,-5 -12.5,0 5,5 0,0 z"
         transform="matrix(-0.8,0,0,-0.8,-10,0)"
         id="path3714-5"
         style="fill-rule:evenodd;stroke:#000000;stroke-width:1pt;marker-start:none" />
    </marker>
    <marker
       refX="0"
       refY="0"
       orient="auto"
       id="Arrow2Mend-3"
       style="overflow:visible">
      <path
         d="M 8.7185878,4.0337352 -2.2072895,0.01601326 8.7185884,-4.0017078 c -1.7454984,2.3720609 -1.7354408,5.6174519 -6e-7,8.035443 z"
         transform="scale(-0.6,-0.6)"
         id="path3738-7"
         style="font-size:12px;fill-rule:evenodd;stroke-width:0.625;stroke-linejoin:round" />
    </marker>
    <marker
       refX="0"
       refY="0"
       orient="auto"
       id="DiamondS-6"
       style="overflow:visible">
      <path
         d="M 0,-7.0710768 -7.0710894,0 0,7.0710589 7.0710462,0 0,-7.0710768 z"
         transform="scale(0.2,0.2)"
         id="path3797-9"
         style="fill-rule:evenodd;stroke:#000000;stroke-width:1pt;marker-start:none" />
    </marker>
    <marker
       refX="0"
       refY="0"
       orient="auto"
       id="Arrow1Mend-6"
       style="overflow:visible">
      <path
         d="M 0,0 5,-5 -12.5,0 5,5 0,0 z"
         transform="matrix(-0.4,0,0,-0.4,-4,0)"
         id="path3720-5"
         style="fill-rule:evenodd;stroke:#000000;stroke-width:1pt;marker-start:none" />
    </marker>
    <marker
       refX="0"
       refY="0"
       orient="auto"
       id="Arrow2Send-554"
       style="overflow:visible">
      <path
         d="M 8.7185878,4.0337352 -2.2072895,0.01601326 8.7185884,-4.0017078 c -1.7454984,2.3720609 -1.7354408,5.6174519 -6e-7,8.035443 z"
         transform="matrix(-0.3,0,0,-0.3,0.69,0)"
         id="path3744-7"
         style="font-size:12px;fill-rule:evenodd;stroke-width:0.625;stroke-linejoin:round" />
    </marker>
    <radialGradient
       cx="7.9733"
       cy="1044.6105"
       r="7.8085856"
       fx="7.9733"
       fy="1044.6105"
       id="radialGradient4276"
       xlink:href="#linearGradient4268"
       gradientUnits="userSpaceOnUse"
       gradientTransform="matrix(1,0,0,0.81890743,0,189.17119)" />
    <linearGradient
       id="linearGradient3704">
      <stop
         id="stop3706"
         style="stop-color:#ffffff;stop-opacity:1"
         offset="0" />
      <stop
         id="stop3708"
         style="stop-color:#ffffff;stop-opacity:0"
         offset="1" />
    </linearGradient>
    <linearGradient
       id="linearGradient3939">
      <stop
         id="stop3941"
         style="stop-color:#ffffff;stop-opacity:0"
         offset="0" />
      <stop
         id="stop3945"
         style="stop-color:#ffffff;stop-opacity:1"
         offset="0.5" />
      <stop
         id="stop3943"
         style="stop-color:#ffffff;stop-opacity:0"
         offset="1" />
    </linearGradient>
  </defs>
  <g
     transform="translate(0,-1036.3622)"
     id="layer1">
    <path
       d="m 2.2202932,1037.4089 c -1.45324026,-2.456 -2.40666879,3.0687 -1.38908274,3.7366 0.70347364,0.4618 1.91302854,-1.0404 2.66451354,-0.078 2.0318181,2.6025 1.607229,-3.9075 0.3283284,-3.4447 -1.0528413,0.3811 -0.5908171,1.4979 -1.6037592,-0.2141 z"
       id="path3049"
       style="fill:#ffc700;fill-opacity:0.64102568;stroke:#000000;stroke-width:0.18484193;stroke-linecap:round;stroke-linejoin:round;stroke-miterlimit:4;stroke-opacity:0.69230772;stroke-dasharray:none" />
    <path
       d="m 13.368777,1044.4254 c -1.541573,-1.9996 -2.581255,1.8605 -1.501816,2.4043 0.746234,0.3759 1.74631,0.9154 2.543474,1.6992 2.155319,2.1189 3.063317,-4.397 1.70668,-4.0201 -1.116837,0.3102 -0.01237,0.6703 -1.644642,0.2206 l -1.103696,-0.304 z"
       id="path3049-6"
       style="fill:#00b000;fill-opacity:0.77243593;stroke:#000000;stroke-width:0.17178199;stroke-linecap:round;stroke-linejoin:round;stroke-miterlimit:4;stroke-opacity:0.32051284;stroke-dasharray:none" />
    <path
       d="m 25.765524,5.2024283 a 0.02064545,0.26839089 0 1 1 -0.04129,0 0.02064545,0.26839089 0 1 1 0.04129,0 z"
       transform="translate(0,1036.3622)"
       id="path4946"
       style="opacity:0.93999999;fill:#ffe100;fill-opacity:1;stroke:#a90000;stroke-opacity:0" />
    <rect
       width="16.723724"
       height="15.828771"
       ry="0.98851055"
       x="-0.30097666"
       y="1036.5266"
       id="rect4992"
       style="opacity:0.93999999;fill:none;stroke:#000000;stroke-width:1.04797125;stroke-opacity:1" />
    <path
       d="m 9.6840087,1039.8126 c -1.5415727,-1.9996 -3.1593274,2.7276 -2.0798884,3.2714 0.746234,0.3759 1.3334008,-1.7685 2.1305644,-0.9847 2.1553193,2.1189 3.0801723,-0.3067 2.1195893,-1.3362 -2.7403809,-2.9369 1.203692,0.4406 -2.1702653,-0.9505 l 0,0 z"
       id="path3049-6-6"
       style="fill:#000000;fill-opacity:1;stroke:#000000;stroke-width:0.17178199;stroke-linecap:round;stroke-linejoin:round;stroke-miterlimit:4;stroke-opacity:0.32051284;stroke-dasharray:none" />
    <path
       d="m 5.3911753,1044.7144 c -1.5415731,-1.9996 -1.3139163,2.3364 -2.0798888,3.2714 -0.7815295,0.954 2.613419,0.09 3.4105829,0.8734 2.155319,2.1189 0.9252371,-2.5212 -0.4404472,-2.864 -0.9864913,-0.2476 2.4837229,0.1103 -0.8902469,-1.2808 l 0,0 z"
       id="path3049-6-6-3"
       style="fill:#000000;fill-opacity:1;stroke:#000000;stroke-width:0.17178199;stroke-linecap:round;stroke-linejoin:round;stroke-miterlimit:4;stroke-opacity:0.32051284;stroke-dasharray:none" />
    <text
       x="1.1500698"
       y="1041.0868"
       id="text5059"
       xml:space="preserve"
       style="font-size:46.79682159px;font-style:normal;font-weight:normal;fill:#ff0000;fill-opacity:1;stroke:none;font-family:Bitstream Vera Sans"><tspan
         x="1.1500698"
         y="1041.0868"
         id="tspan5061"
         style="font-size:4.67968225px;fill:#ff0000;fill-opacity:1">X</tspan></text>
    <text
       x="12.113734"
       y="1047.9941"
       id="text5059-2"
       xml:space="preserve"
       style="font-size:46.79682159px;font-style:normal;font-weight:normal;fill:#ff0000;fill-opacity:1;stroke:none;font-family:Bitstream Vera Sans"><tspan
         x="12.113734"
         y="1047.9941"
         id="tspan5061-0"
         style="font-size:4.67968225px;fill:#ff0000;fill-opacity:1">X</tspan></text>
  </g>
</svg>
