<?xml version="1.0" encoding="UTF-8" standalone="no"?>
<!-- Created with Inkscape (http://www.inkscape.org/) -->

<svg
   xmlns:dc="http://purl.org/dc/elements/1.1/"
   xmlns:cc="http://creativecommons.org/ns#"
   xmlns:rdf="http://www.w3.org/1999/02/22-rdf-syntax-ns#"
   xmlns:svg="http://www.w3.org/2000/svg"
   xmlns="http://www.w3.org/2000/svg"
   xmlns:sodipodi="http://sodipodi.sourceforge.net/DTD/sodipodi-0.dtd"
   xmlns:inkscape="http://www.inkscape.org/namespaces/inkscape"
   width="16"
   height="16"
   id="svg2"
   version="1.1"
   inkscape:version="0.48.3.1 r9886"
   sodipodi:docname="multi_thresholder.svg"
   inkscape:export-filename="/home/hornm/workspaces/eclipse/workspace_indigo/knip/org.knime.knip.base/src/org/knime/knip/base/nodes/proc/icons/multi_thresholder.png"
   inkscape:export-xdpi="90"
   inkscape:export-ydpi="90">
  <defs
     id="defs4">
    <marker
       inkscape:stockid="Arrow2Send"
       orient="auto"
       refY="0.0"
       refX="0.0"
       id="Arrow2Send"
       style="overflow:visible;">
      <path
         id="path3744"
         style="font-size:12.0;fill-rule:evenodd;stroke-width:0.62500000;stroke-linejoin:round;"
         d="M 8.7185878,4.0337352 L -2.2072895,0.016013256 L 8.7185884,-4.0017078 C 6.9730900,-1.6296469 6.9831476,1.6157441 8.7185878,4.0337352 z "
         transform="scale(0.3) rotate(180) translate(-2.3,0)" />
    </marker>
    <marker
       inkscape:stockid="Arrow1Mend"
       orient="auto"
       refY="0.0"
       refX="0.0"
       id="Arrow1Mend"
       style="overflow:visible;">
      <path
         id="path3720"
         d="M 0.0,0.0 L 5.0,-5.0 L -12.5,0.0 L 5.0,5.0 L 0.0,0.0 z "
         style="fill-rule:evenodd;stroke:#000000;stroke-width:1.0pt;marker-start:none;"
         transform="scale(0.4) rotate(180) translate(10,0)" />
    </marker>
    <marker
       inkscape:stockid="DiamondS"
       orient="auto"
       refY="0.0"
       refX="0.0"
       id="DiamondS"
       style="overflow:visible">
      <path
         id="path3797"
         d="M 0,-7.0710768 L -7.0710894,0 L 0,7.0710589 L 7.0710462,0 L 0,-7.0710768 z "
         style="fill-rule:evenodd;stroke:#000000;stroke-width:1.0pt;marker-start:none"
         transform="scale(0.2)" />
    </marker>
    <marker
       inkscape:stockid="Arrow2Mend"
       orient="auto"
       refY="0.0"
       refX="0.0"
       id="Arrow2Mend"
       style="overflow:visible;">
      <path
         id="path3738"
         style="font-size:12.0;fill-rule:evenodd;stroke-width:0.62500000;stroke-linejoin:round;"
         d="M 8.7185878,4.0337352 L -2.2072895,0.016013256 L 8.7185884,-4.0017078 C 6.9730900,-1.6296469 6.9831476,1.6157441 8.7185878,4.0337352 z "
         transform="scale(0.6) rotate(180) translate(0,0)" />
    </marker>
    <marker
       inkscape:stockid="Arrow1Lend"
       orient="auto"
       refY="0.0"
       refX="0.0"
       id="Arrow1Lend"
       style="overflow:visible;">
      <path
         id="path3714"
         d="M 0.0,0.0 L 5.0,-5.0 L -12.5,0.0 L 5.0,5.0 L 0.0,0.0 z "
         style="fill-rule:evenodd;stroke:#000000;stroke-width:1.0pt;marker-start:none;"
         transform="scale(0.8) rotate(180) translate(12.5,0)" />
    </marker>
    <inkscape:perspective
       sodipodi:type="inkscape:persp3d"
       inkscape:vp_x="0 : 526.18109 : 1"
       inkscape:vp_y="0 : 1000 : 0"
       inkscape:vp_z="1371.7932 : 339.99927 : 1"
       inkscape:persp3d-origin="372.04724 : 350.78739 : 1"
       id="perspective10" />
    <inkscape:perspective
       id="perspective3628"
       inkscape:persp3d-origin="0.5 : 0.33333333 : 1"
       inkscape:vp_z="1 : 0.5 : 1"
       inkscape:vp_y="0 : 1000 : 0"
       inkscape:vp_x="0 : 0.5 : 1"
       sodipodi:type="inkscape:persp3d" />
    <inkscape:perspective
       id="perspective3650"
       inkscape:persp3d-origin="0.5 : 0.33333333 : 1"
       inkscape:vp_z="1 : 0.5 : 1"
       inkscape:vp_y="0 : 1000 : 0"
       inkscape:vp_x="0 : 0.5 : 1"
       sodipodi:type="inkscape:persp3d" />
    <inkscape:perspective
       id="perspective3679"
       inkscape:persp3d-origin="0.5 : 0.33333333 : 1"
       inkscape:vp_z="1 : 0.5 : 1"
       inkscape:vp_y="0 : 1000 : 0"
       inkscape:vp_x="0 : 0.5 : 1"
       sodipodi:type="inkscape:persp3d" />
    <inkscape:perspective
       id="perspective3679-7"
       inkscape:persp3d-origin="0.5 : 0.33333333 : 1"
       inkscape:vp_z="1 : 0.5 : 1"
       inkscape:vp_y="0 : 1000 : 0"
       inkscape:vp_x="0 : 0.5 : 1"
       sodipodi:type="inkscape:persp3d" />
    <inkscape:perspective
       id="perspective2844"
       inkscape:persp3d-origin="0.5 : 0.33333333 : 1"
       inkscape:vp_z="1 : 0.5 : 1"
       inkscape:vp_y="0 : 1000 : 0"
       inkscape:vp_x="0 : 0.5 : 1"
       sodipodi:type="inkscape:persp3d" />
    <inkscape:perspective
       id="perspective2866"
       inkscape:persp3d-origin="0.5 : 0.33333333 : 1"
       inkscape:vp_z="1 : 0.5 : 1"
       inkscape:vp_y="0 : 1000 : 0"
       inkscape:vp_x="0 : 0.5 : 1"
       sodipodi:type="inkscape:persp3d" />
    <inkscape:perspective
       id="perspective2888"
       inkscape:persp3d-origin="0.5 : 0.33333333 : 1"
       inkscape:vp_z="1 : 0.5 : 1"
       inkscape:vp_y="0 : 1000 : 0"
       inkscape:vp_x="0 : 0.5 : 1"
       sodipodi:type="inkscape:persp3d" />
    <marker
       inkscape:stockid="Arrow2Send"
       orient="auto"
       refY="0"
       refX="0"
       id="Arrow2Send-5"
       style="overflow:visible">
      <path
         id="path3744-5"
         style="font-size:12px;fill-rule:evenodd;stroke-width:0.625;stroke-linejoin:round"
         d="M 8.7185878,4.0337352 -2.2072895,0.01601326 8.7185884,-4.0017078 c -1.7454984,2.3720609 -1.7354408,5.6174519 -6e-7,8.035443 z"
         transform="matrix(-0.3,0,0,-0.3,0.69,0)" />
    </marker>
  </defs>
  <sodipodi:namedview
     id="base"
     pagecolor="#ffffff"
     bordercolor="#666666"
     borderopacity="1.0"
     inkscape:pageopacity="0.0"
     inkscape:pageshadow="2"
     inkscape:zoom="32"
     inkscape:cx="7.0271059"
     inkscape:cy="7.3667225"
     inkscape:document-units="px"
     inkscape:current-layer="layer1"
     showgrid="false"
     inkscape:window-width="1375"
     inkscape:window-height="876"
     inkscape:window-x="65"
     inkscape:window-y="24"
     inkscape:window-maximized="1" />
  <metadata
     id="metadata7">
    <rdf:RDF>
      <cc:Work
         rdf:about="">
        <dc:format>image/svg+xml</dc:format>
        <dc:type
           rdf:resource="http://purl.org/dc/dcmitype/StillImage" />
        <dc:title></dc:title>
      </cc:Work>
    </rdf:RDF>
  </metadata>
  <g
     inkscape:label="Layer 1"
     inkscape:groupmode="layer"
     id="layer1"
     transform="translate(0,-1036.3622)">
    <path
       style="fill:#333333;fill-opacity:1;stroke:none"
       d="m 4.0691862,1038.1031 c -0.2503696,0.088 -0.2525856,0.4533 -0.2860983,0.72 -0.1804186,1.6629 -0.2359577,3.3431 -0.3499229,5.0152 -0.1125812,1.6484 -0.225713,3.3287 -0.6150594,4.9151 -0.1584473,0.6424 -0.4071961,1.2513 -0.7563846,1.7599 -0.1561382,0.2356 -0.011115,0.6288 0.2262794,0.6259 1.7196314,0.028 3.439567,0.011 5.1593232,0.016 0.2245644,-0.01 0.3295196,-0.3088 0.2935517,-0.5625 -0.00999,-0.729 0.022286,-1.4661 -0.026905,-2.1901 -0.038146,-0.3126 -0.3783692,-0.4095 -0.5334423,-0.1703 -0.1527237,0.1895 -0.3708847,0.3003 -0.5779298,0.3418 -0.2589336,-0.1307 -0.3591262,-0.5117 -0.4720886,-0.8071 -0.4396183,-1.3806 -0.6296847,-2.8586 -0.869462,-4.3084 -0.2581665,-1.6066 -0.4559738,-3.2298 -0.7477117,-4.8269 -0.038321,-0.268 -0.1722972,-0.5888 -0.4216417,-0.5317 l -0.022508,0 z"
       id="path3649"
       inkscape:connector-curvature="0" />
    <path
       style="fill:#cccccc;fill-opacity:1;stroke:none"
       d="m 8.53775,1044.6305 c -0.423321,0.157 -0.656251,0.5922 -0.838216,0.9796 -0.300728,0.6762 -0.521108,1.3813 -0.836572,2.0509 -0.06464,0.4528 -0.01056,0.9187 -0.02834,1.3767 0.0097,0.6108 -0.01947,1.2263 0.01459,1.8342 0.03799,0.3077 0.393324,0.3418 0.641665,0.3143 2.910065,-0.01 5.828405,0.014 8.733398,-0.016 0.333176,0 0.489017,-0.4863 0.204375,-0.6671 -0.395389,-0.2498 -0.840081,-0.4229 -1.236227,-0.6768 -0.936914,-0.5302 -1.813632,-1.1756 -2.807015,-1.5994 -0.467892,-0.1946 -1.030529,-0.2672 -1.488282,-0.011 -0.237758,0.088 -0.443272,-0.145 -0.55957,-0.3232 -0.363503,-0.5991 -0.540702,-1.2868 -0.791653,-1.9388 -0.177218,-0.4288 -0.301377,-0.921 -0.660495,-1.239 -0.09957,-0.072 -0.225637,-0.1073 -0.347657,-0.085 z"
       id="path3651"
       inkscape:connector-curvature="0" />
    <path
       style="fill:#8d8d8d;fill-opacity:1;stroke:none"
       d="m 12.75,7.34375 c -0.167002,0.3847078 -0.182265,0.8200916 -0.3125,1.21875 -0.226454,0.6931891 -0.549772,1.3509804 -0.8125,2.03125 -0.204247,0.528848 -0.486233,1.037119 -0.59375,1.59375 -0.158093,0.818465 -0.0625,2.5 -0.0625,2.5 l 6,0.0625 c 0,0 -0.447807,-1.225595 -0.65625,-1.84375 C 15.994609,11.963517 15.695379,11.014448 15.40625,10.0625 15.122658,9.1287804 15.002308,8.1361924 14.59375,7.25 14.363927,6.7514971 14.236415,5.8709833 13.6875,5.875 13.106699,5.87925 12.981281,6.8109676 12.75,7.34375 z"
       id="path3870"
       inkscape:connector-curvature="0"
       transform="translate(0,1036.3622)"
       sodipodi:nodetypes="ssssccsssss" />
    <path
       style="color:#000000;fill:none;stroke:#000000;stroke-width:0.49999997;stroke-linecap:butt;stroke-linejoin:miter;stroke-miterlimit:4;stroke-opacity:1;stroke-dasharray:none;stroke-dashoffset:0;marker:none;visibility:visible;display:inline;overflow:visible;enable-background:accumulate"
       d="m -1.0457217,1051.1123 18.2789437,0"
       id="path2833" />
    <path
       style="color:#000000;fill:none;stroke:#000000;stroke-width:0.50000000000000000;stroke-linecap:butt;stroke-linejoin:miter;stroke-miterlimit:4;stroke-opacity:1;stroke-dasharray:none;stroke-dashoffset:0;marker:none;visibility:visible;display:inline;overflow:visible;enable-background:accumulate"
       d="m 10.8125,1036.1892 0,16.4711"
       id="path3645"
       inkscape:connector-curvature="0" />
    <path
       style="color:#000000;fill:none;stroke:#000000;stroke-width:0.50000000000000000;stroke-linecap:butt;stroke-linejoin:miter;stroke-miterlimit:4;stroke-opacity:1;stroke-dasharray:none;stroke-dashoffset:0;marker:none;visibility:visible;display:inline;overflow:visible;enable-background:accumulate"
       d="m 6.59375,1036.2204 0,16.4711"
       id="path3645-0"
       inkscape:connector-curvature="0" />
    <rect
       ry="2.5365337e-06"
       rx="1.8662621e-06"
       y="1036.3622"
       x="0"
       height="16"
       width="2"
       id="rect3089"
       style="fill:#8c0000;fill-opacity:1;stroke:none" />
  </g>
</svg>
