<?xml version="1.0" encoding="UTF-8" standalone="no"?>
<!-- Created with Inkscape (http://www.inkscape.org/) -->

<svg
   xmlns:dc="http://purl.org/dc/elements/1.1/"
   xmlns:cc="http://creativecommons.org/ns#"
   xmlns:rdf="http://www.w3.org/1999/02/22-rdf-syntax-ns#"
   xmlns:svg="http://www.w3.org/2000/svg"
   xmlns="http://www.w3.org/2000/svg"
   xmlns:xlink="http://www.w3.org/1999/xlink"
   xmlns:sodipodi="http://sodipodi.sourceforge.net/DTD/sodipodi-0.dtd"
   xmlns:inkscape="http://www.inkscape.org/namespaces/inkscape"
   width="16"
   height="16"
   id="svg2"
   version="1.1"
   inkscape:version="0.48.3.1 r9886"
   sodipodi:docname="converter.svg"
   inkscape:export-filename="/home/hornm/workspaces/eclipse/workspace_indigo/knip/org.knime.knip.base/src/org/knime/knip/base/nodes/proc/icons/converter.png"
   inkscape:export-xdpi="90"
   inkscape:export-ydpi="90">
  <defs
     id="defs4">
    <marker
       inkscape:stockid="Arrow1Send"
       orient="auto"
       refY="0.0"
       refX="0.0"
       id="Arrow1Send"
       style="overflow:visible;">
      <path
         id="path3935"
         d="M 0.0,0.0 L 5.0,-5.0 L -12.5,0.0 L 5.0,5.0 L 0.0,0.0 z "
         style="fill-rule:evenodd;stroke:#000000;stroke-width:1.0pt;marker-start:none;"
         transform="scale(0.2) rotate(180) translate(6,0)" />
    </marker>
    <marker
       inkscape:stockid="Arrow1Sstart"
       orient="auto"
       refY="0.0"
       refX="0.0"
       id="Arrow1Sstart"
       style="overflow:visible">
      <path
         id="path3932"
         d="M 0.0,0.0 L 5.0,-5.0 L -12.5,0.0 L 5.0,5.0 L 0.0,0.0 z "
         style="fill-rule:evenodd;stroke:#000000;stroke-width:1.0pt;marker-start:none"
         transform="scale(0.2) translate(6,0)" />
    </marker>
    <marker
       inkscape:stockid="Arrow2Lstart"
       orient="auto"
       refY="0.0"
       refX="0.0"
       id="Arrow2Lstart"
       style="overflow:visible">
      <path
         id="path3938"
         style="font-size:12.0;fill-rule:evenodd;stroke-width:0.62500000;stroke-linejoin:round"
         d="M 8.7185878,4.0337352 L -2.2072895,0.016013256 L 8.7185884,-4.0017078 C 6.9730900,-1.6296469 6.9831476,1.6157441 8.7185878,4.0337352 z "
         transform="scale(1.1) translate(1,0)" />
    </marker>
    <linearGradient
       id="linearGradient3704">
      <stop
         id="stop3706"
         offset="0"
         style="stop-color:#ffffff;stop-opacity:1;" />
      <stop
         id="stop3708"
         offset="1"
         style="stop-color:#000000;stop-opacity:1;" />
    </linearGradient>
    <linearGradient
       id="linearGradient3658">
      <stop
         style="stop-color:#000000;stop-opacity:1;"
         offset="0"
         id="stop3660" />
      <stop
         style="stop-color:#ffffff;stop-opacity:1;"
         offset="1"
         id="stop3662" />
    </linearGradient>
    <linearGradient
       inkscape:collect="always"
       id="linearGradient2854">
      <stop
         style="stop-color:#00ff00;stop-opacity:1;"
         offset="0"
         id="stop2856" />
      <stop
         style="stop-color:#ff0000;stop-opacity:1;"
         offset="1"
         id="stop2858" />
    </linearGradient>
    <linearGradient
       inkscape:collect="always"
       id="linearGradient2842">
      <stop
         style="stop-color:#008080;stop-opacity:1;"
         offset="0"
         id="stop2844" />
      <stop
         style="stop-color:#008080;stop-opacity:0"
         offset="1"
         id="stop2846" />
    </linearGradient>
    <marker
       inkscape:stockid="Arrow2Send"
       orient="auto"
       refY="0.0"
       refX="0.0"
       id="Arrow2Send"
       style="overflow:visible;">
      <path
         id="path3744"
         style="font-size:12.0;fill-rule:evenodd;stroke-width:0.62500000;stroke-linejoin:round;"
         d="M 8.7185878,4.0337352 L -2.2072895,0.016013256 L 8.7185884,-4.0017078 C 6.9730900,-1.6296469 6.9831476,1.6157441 8.7185878,4.0337352 z "
         transform="scale(0.3) rotate(180) translate(-2.3,0)" />
    </marker>
    <marker
       inkscape:stockid="Arrow1Mend"
       orient="auto"
       refY="0.0"
       refX="0.0"
       id="Arrow1Mend"
       style="overflow:visible;">
      <path
         id="path3720"
         d="M 0.0,0.0 L 5.0,-5.0 L -12.5,0.0 L 5.0,5.0 L 0.0,0.0 z "
         style="fill-rule:evenodd;stroke:#000000;stroke-width:1.0pt;marker-start:none;"
         transform="scale(0.4) rotate(180) translate(10,0)" />
    </marker>
    <marker
       inkscape:stockid="DiamondS"
       orient="auto"
       refY="0.0"
       refX="0.0"
       id="DiamondS"
       style="overflow:visible">
      <path
         id="path3797"
         d="M 0,-7.0710768 L -7.0710894,0 L 0,7.0710589 L 7.0710462,0 L 0,-7.0710768 z "
         style="fill-rule:evenodd;stroke:#000000;stroke-width:1.0pt;marker-start:none"
         transform="scale(0.2)" />
    </marker>
    <marker
       inkscape:stockid="Arrow2Mend"
       orient="auto"
       refY="0.0"
       refX="0.0"
       id="Arrow2Mend"
       style="overflow:visible;">
      <path
         id="path3738"
         style="font-size:12.0;fill-rule:evenodd;stroke-width:0.62500000;stroke-linejoin:round;"
         d="M 8.7185878,4.0337352 L -2.2072895,0.016013256 L 8.7185884,-4.0017078 C 6.9730900,-1.6296469 6.9831476,1.6157441 8.7185878,4.0337352 z "
         transform="scale(0.6) rotate(180) translate(0,0)" />
    </marker>
    <marker
       inkscape:stockid="Arrow1Lend"
       orient="auto"
       refY="0.0"
       refX="0.0"
       id="Arrow1Lend"
       style="overflow:visible;">
      <path
         id="path3714"
         d="M 0.0,0.0 L 5.0,-5.0 L -12.5,0.0 L 5.0,5.0 L 0.0,0.0 z "
         style="fill-rule:evenodd;stroke:#000000;stroke-width:1.0pt;marker-start:none;"
         transform="scale(0.8) rotate(180) translate(12.5,0)" />
    </marker>
    <inkscape:perspective
       sodipodi:type="inkscape:persp3d"
       inkscape:vp_x="0 : 526.18109 : 1"
       inkscape:vp_y="0 : 1000 : 0"
       inkscape:vp_z="1371.7932 : 339.99927 : 1"
       inkscape:persp3d-origin="372.04724 : 350.78739 : 1"
       id="perspective10" />
    <inkscape:perspective
       id="perspective3628"
       inkscape:persp3d-origin="0.5 : 0.33333333 : 1"
       inkscape:vp_z="1 : 0.5 : 1"
       inkscape:vp_y="0 : 1000 : 0"
       inkscape:vp_x="0 : 0.5 : 1"
       sodipodi:type="inkscape:persp3d" />
    <inkscape:perspective
       id="perspective3650"
       inkscape:persp3d-origin="0.5 : 0.33333333 : 1"
       inkscape:vp_z="1 : 0.5 : 1"
       inkscape:vp_y="0 : 1000 : 0"
       inkscape:vp_x="0 : 0.5 : 1"
       sodipodi:type="inkscape:persp3d" />
    <inkscape:perspective
       id="perspective3679"
       inkscape:persp3d-origin="0.5 : 0.33333333 : 1"
       inkscape:vp_z="1 : 0.5 : 1"
       inkscape:vp_y="0 : 1000 : 0"
       inkscape:vp_x="0 : 0.5 : 1"
       sodipodi:type="inkscape:persp3d" />
    <inkscape:perspective
       id="perspective3679-7"
       inkscape:persp3d-origin="0.5 : 0.33333333 : 1"
       inkscape:vp_z="1 : 0.5 : 1"
       inkscape:vp_y="0 : 1000 : 0"
       inkscape:vp_x="0 : 0.5 : 1"
       sodipodi:type="inkscape:persp3d" />
    <inkscape:perspective
       id="perspective2844"
       inkscape:persp3d-origin="0.5 : 0.33333333 : 1"
       inkscape:vp_z="1 : 0.5 : 1"
       inkscape:vp_y="0 : 1000 : 0"
       inkscape:vp_x="0 : 0.5 : 1"
       sodipodi:type="inkscape:persp3d" />
    <inkscape:perspective
       id="perspective2866"
       inkscape:persp3d-origin="0.5 : 0.33333333 : 1"
       inkscape:vp_z="1 : 0.5 : 1"
       inkscape:vp_y="0 : 1000 : 0"
       inkscape:vp_x="0 : 0.5 : 1"
       sodipodi:type="inkscape:persp3d" />
    <inkscape:perspective
       id="perspective2888"
       inkscape:persp3d-origin="0.5 : 0.33333333 : 1"
       inkscape:vp_z="1 : 0.5 : 1"
       inkscape:vp_y="0 : 1000 : 0"
       inkscape:vp_x="0 : 0.5 : 1"
       sodipodi:type="inkscape:persp3d" />
    <marker
       inkscape:stockid="Arrow2Send"
       orient="auto"
       refY="0"
       refX="0"
       id="Arrow2Send-5"
       style="overflow:visible">
      <path
         id="path3744-5"
         style="font-size:12px;fill-rule:evenodd;stroke-width:0.625;stroke-linejoin:round"
         d="M 8.7185878,4.0337352 -2.2072895,0.01601326 8.7185884,-4.0017078 c -1.7454984,2.3720609 -1.7354408,5.6174519 -6e-7,8.035443 z"
         transform="matrix(-0.3,0,0,-0.3,0.69,0)" />
    </marker>
    <linearGradient
       inkscape:collect="always"
       xlink:href="#linearGradient2842"
       id="linearGradient2848"
       x1="10.126055"
       y1="13"
       x2="4.4061646"
       y2="13"
       gradientUnits="userSpaceOnUse" />
    <linearGradient
       inkscape:collect="always"
       xlink:href="#linearGradient2854"
       id="linearGradient2860"
       x1="4.71875"
       y1="13.65625"
       x2="8.6875963"
       y2="13.65625"
       gradientUnits="userSpaceOnUse" />
    <inkscape:perspective
       id="perspective3694"
       inkscape:persp3d-origin="0.5 : 0.33333333 : 1"
       inkscape:vp_z="1 : 0.5 : 1"
       inkscape:vp_y="0 : 1000 : 0"
       inkscape:vp_x="0 : 0.5 : 1"
       sodipodi:type="inkscape:persp3d" />
    <inkscape:perspective
       id="perspective3674"
       inkscape:persp3d-origin="0.5 : 0.33333333 : 1"
       inkscape:vp_z="1 : 0.5 : 1"
       inkscape:vp_y="0 : 1000 : 0"
       inkscape:vp_x="0 : 0.5 : 1"
       sodipodi:type="inkscape:persp3d" />
    <linearGradient
       inkscape:collect="always"
       xlink:href="#linearGradient3658-7"
       id="linearGradient3664-4"
       x1="2.2025547"
       y1="7.5912414"
       x2="13.622262"
       y2="7.5912414"
       gradientUnits="userSpaceOnUse"
       gradientTransform="translate(1.8253336e-8,1036.3622)" />
    <linearGradient
       id="linearGradient3658-7">
      <stop
         style="stop-color:#000000;stop-opacity:1;"
         offset="0"
         id="stop3660-6" />
      <stop
         style="stop-color:#ffffff;stop-opacity:1;"
         offset="1"
         id="stop3662-5" />
    </linearGradient>
    <linearGradient
       inkscape:collect="always"
       xlink:href="#linearGradient3658"
       id="linearGradient3714"
       gradientUnits="userSpaceOnUse"
       gradientTransform="translate(1.8620606e-8,1034.8439)"
       x1="2.2025547"
       y1="7.5912412"
       x2="13.622262"
       y2="7.5912412" />
    <linearGradient
       inkscape:collect="always"
       xlink:href="#linearGradient3704"
       id="linearGradient3716"
       gradientUnits="userSpaceOnUse"
       gradientTransform="translate(5.1337738e-7,1034.8439)"
       x1="2.2025547"
       y1="7.5912414"
       x2="13.622262"
       y2="7.5912414" />
    <linearGradient
       inkscape:collect="always"
       xlink:href="#linearGradient3704"
       id="linearGradient5176"
       gradientUnits="userSpaceOnUse"
       gradientTransform="matrix(0,1,-0.99999998,0,-1036.3621,1.4325297e-5)"
       x1="1.4999857"
       y1="8.2617189e-05"
       x2="1.4999857"
       y2="13.000083" />
    <linearGradient
       inkscape:collect="always"
       xlink:href="#linearGradient3658"
       id="linearGradient5179"
       gradientUnits="userSpaceOnUse"
       gradientTransform="translate(7.3997879e-8,1036.3622)"
       x1="3"
       y1="14.499983"
       x2="16"
       y2="14.499983" />
    <linearGradient
       inkscape:collect="always"
       xlink:href="#linearGradient3658-7"
       id="linearGradient5189"
       x1="3.2206905"
       y1="6.5030918"
       x2="15.855708"
       y2="6.5030918"
       gradientUnits="userSpaceOnUse"
       gradientTransform="translate(0,1036.3622)" />
    <inkscape:perspective
       id="perspective5199"
       inkscape:persp3d-origin="0.5 : 0.33333333 : 1"
       inkscape:vp_z="1 : 0.5 : 1"
       inkscape:vp_y="0 : 1000 : 0"
       inkscape:vp_x="0 : 0.5 : 1"
       sodipodi:type="inkscape:persp3d" />
    <linearGradient
       inkscape:collect="always"
       xlink:href="#linearGradient5183-7"
       id="linearGradient5189-4"
       x1="3.2206905"
       y1="6.5030918"
       x2="15.855708"
       y2="6.5030918"
       gradientUnits="userSpaceOnUse" />
    <linearGradient
       inkscape:collect="always"
       id="linearGradient5183-7">
      <stop
         style="stop-color:#000000;stop-opacity:1;"
         offset="0"
         id="stop5185-4" />
      <stop
         style="stop-color:#000000;stop-opacity:0;"
         offset="1"
         id="stop5187-4" />
    </linearGradient>
    <linearGradient
       y2="12.5243"
       x2="9.3417702"
       y1="-0.50919998"
       x1="9.3417702"
       gradientUnits="userSpaceOnUse"
       id="linearGradient5208"
       xlink:href="#linearGradient3658-7"
       inkscape:collect="always"
       gradientTransform="translate(9.2950105e-8,1036.3622)" />
    <inkscape:perspective
       id="perspective5237"
       inkscape:persp3d-origin="0.5 : 0.33333333 : 1"
       inkscape:vp_z="1 : 0.5 : 1"
       inkscape:vp_y="0 : 1000 : 0"
       inkscape:vp_x="0 : 0.5 : 1"
       sodipodi:type="inkscape:persp3d" />
    <linearGradient
       y2="12.5243"
       x2="9.3417702"
       y1="-0.50919998"
       x1="9.3417702"
       gradientUnits="userSpaceOnUse"
       id="linearGradient5208-7"
       xlink:href="#linearGradient3658-7-0"
       inkscape:collect="always"
       gradientTransform="translate(9.2950105e-8,1036.3622)" />
    <linearGradient
       id="linearGradient3658-7-0">
      <stop
         style="stop-color:#000000;stop-opacity:1;"
         offset="0"
         id="stop3660-6-5" />
      <stop
         style="stop-color:#ffffff;stop-opacity:1;"
         offset="1"
         id="stop3662-5-1" />
    </linearGradient>
    <linearGradient
       y2="6.6269498"
       x2="16.063986"
       y1="6.6269498"
       x1="3.0124128"
       gradientUnits="userSpaceOnUse"
       id="linearGradient5246"
       xlink:href="#linearGradient3658-7-0"
       inkscape:collect="always"
       gradientTransform="translate(-9.6117121e-8,1036.3622)" />
  </defs>
  <sodipodi:namedview
     id="base"
     pagecolor="#ffffff"
     bordercolor="#666666"
     borderopacity="1.0"
     inkscape:pageopacity="0.0"
     inkscape:pageshadow="2"
     inkscape:zoom="12.109204"
     inkscape:cx="3.868033"
     inkscape:cy="10.120963"
     inkscape:document-units="px"
     inkscape:current-layer="layer1"
     showgrid="false"
     inkscape:window-width="1120"
     inkscape:window-height="785"
     inkscape:window-x="318"
     inkscape:window-y="66"
     inkscape:window-maximized="0" />
  <metadata
     id="metadata7">
    <rdf:RDF>
      <cc:Work
         rdf:about="">
        <dc:format>image/svg+xml</dc:format>
        <dc:type
           rdf:resource="http://purl.org/dc/dcmitype/StillImage" />
        <dc:title></dc:title>
      </cc:Work>
    </rdf:RDF>
  </metadata>
  <g
     inkscape:label="Layer 1"
     inkscape:groupmode="layer"
     id="layer1"
     transform="translate(0,-1036.3622)">
    <path
       id="path3725"
       style="font-size:9.77654648px;font-style:normal;font-variant:normal;font-weight:normal;font-stretch:normal;text-align:start;writing-mode:lr-tb;text-anchor:start;fill:#000000;fill-opacity:1;stroke:#000000;stroke-width:0.25509617;stroke-linecap:round;stroke-linejoin:round;stroke-miterlimit:4;stroke-opacity:1;stroke-dashoffset:0;font-family:Liberation Serif;-inkscape-font-specification:Babelfish"
       d="m 3.3051506,1044.3304 c -1.2e-6,0.2275 0.00541,0.455 0.016222,0.6826 0.010814,0.2247 0.031092,0.4454 0.060834,0.6622 0.032443,0.2139 0.078406,0.4225 0.1378903,0.6257 0.062184,0.2004 0.1432962,0.3885 0.2433357,0.5646 0.1000363,0.1788 0.223056,0.3441 0.3690592,0.4957 0.1459994,0.1544 0.3203899,0.2898 0.523172,0.4063 l 0,0.3413 c -0.3623022,-0.1923 -0.6772865,-0.4022 -0.9449539,-0.6298 -0.2649669,-0.2248 -0.4866726,-0.4862 -0.6651178,-0.7841 -0.1757432,-0.2952 -0.306874,-0.6351 -0.3933928,-1.0197 -0.08652,-0.3846 -0.1297794,-0.8329 -0.1297791,-1.3448 -3e-7,-0.512 0.043259,-0.9588 0.1297791,-1.3407 0.086519,-0.3846 0.2176496,-0.7246 0.3933928,-1.0198 0.1784452,-0.2952 0.4001509,-0.5552 0.6651178,-0.7801 0.2676674,-0.2247 0.5826517,-0.4332 0.9449539,-0.6256 l 0,0.3413 c -0.3055239,0.176 -0.5475075,0.39 -0.7259517,0.6419 -0.1784479,0.2491 -0.3149861,0.524 -0.4096152,0.8247 -0.091928,0.298 -0.1514102,0.6135 -0.1784462,0.9467 -0.024335,0.3331 -0.036502,0.6703 -0.0365,1.0116"
       inkscape:connector-curvature="0" />
    <path
       id="path3727"
       style="font-size:9.77654648px;font-style:normal;font-variant:normal;font-weight:normal;font-stretch:normal;text-align:start;writing-mode:lr-tb;text-anchor:start;fill:#000000;fill-opacity:1;stroke:#000000;stroke-width:0.25509617;stroke-linecap:round;stroke-linejoin:round;stroke-miterlimit:4;stroke-opacity:1;stroke-dashoffset:0;font-family:Liberation Serif;-inkscape-font-specification:Babelfish"
       d="m 6.3587861,1041.2711 c -1.6e-6,0.06 -0.012168,0.1165 -0.0365,0.1707 -0.021632,0.052 -0.052724,0.098 -0.093279,0.1381 -0.040558,0.041 -0.087873,0.073 -0.1419458,0.097 -0.054076,0.021 -0.1108542,0.032 -0.1703351,0.032 -0.059483,0 -0.1162614,-0.011 -0.170335,-0.032 -0.051372,-0.025 -0.097335,-0.057 -0.1378903,-0.097 -0.040557,-0.041 -0.073001,-0.087 -0.097334,-0.1381 -0.02163,-0.054 -0.032445,-0.1111 -0.032445,-0.1707 -6e-7,-0.06 0.010814,-0.1164 0.032445,-0.1706 0.024333,-0.055 0.056778,-0.1016 0.097334,-0.1422 0.040555,-0.041 0.086518,-0.071 0.1378903,-0.094 0.054074,-0.025 0.1108519,-0.036 0.170335,-0.036 0.059481,0 0.1162593,0.012 0.1703351,0.036 0.054073,0.021 0.1013885,0.053 0.1419458,0.094 0.040554,0.041 0.071648,0.088 0.093279,0.1422 0.024332,0.054 0.036499,0.111 0.0365,0.1706 m -0.040556,4.782 0.652951,0.1015 0,0.1827 -1.9750752,0 0,-0.1827 0.6488953,-0.1015 0,-3.2503 -0.5393943,-0.1015 0,-0.1829 1.2126232,0 0,3.5347"
       inkscape:connector-curvature="0" />
    <path
       id="path3729"
       style="font-size:9.77654648px;font-style:normal;font-variant:normal;font-weight:normal;font-stretch:normal;text-align:start;writing-mode:lr-tb;text-anchor:start;fill:#000000;fill-opacity:1;stroke:#000000;stroke-width:0.25509617;stroke-linecap:round;stroke-linejoin:round;stroke-miterlimit:4;stroke-opacity:1;stroke-dashoffset:0;font-family:Liberation Serif;-inkscape-font-specification:Babelfish"
       d="m 8.4393069,1042.8271 c 0.075702,-0.043 0.1649261,-0.089 0.2676694,-0.1381 0.1054438,-0.048 0.2149448,-0.093 0.3285032,-0.1341 0.1135547,-0.041 0.2271114,-0.073 0.3406701,-0.097 0.1135543,-0.027 0.2189997,-0.041 0.3163365,-0.041 0.1459987,0 0.2798333,0.02 0.4015039,0.061 0.121665,0.041 0.225758,0.1057 0.312281,0.195 0.08922,0.089 0.158165,0.2059 0.206835,0.3495 0.05137,0.1436 0.07705,0.3168 0.07706,0.5199 l 0,2.511 0.462339,0.1015 0,0.1827 -1.6425171,0 0,-0.1827 0.5069501,-0.1015 0,-2.4378 c -3e-6,-0.2248 -0.055429,-0.4009 -0.16628,-0.5281 -0.1081519,-0.1301 -0.2771348,-0.195 -0.5069495,-0.195 -0.075706,0 -0.1554666,0 -0.2392801,0.012 -0.083818,0.01 -0.1662813,0.018 -0.2473914,0.029 -0.081114,0.011 -0.1581698,0.025 -0.231169,0.041 -0.070298,0.014 -0.1297805,0.025 -0.1784462,0.036 l 0,3.0431 0.5150607,0.1015 0,0.1828 -1.646572,0 0,-0.1828 0.4582824,-0.1015 0,-3.2503 -0.4582824,-0.1015 0,-0.1829 1.0868997,0 0.0365,0.3087"
       inkscape:connector-curvature="0" />
    <path
       id="path3731"
       style="font-size:9.77654648px;font-style:normal;font-variant:normal;font-weight:normal;font-stretch:normal;text-align:start;writing-mode:lr-tb;text-anchor:start;fill:#000000;fill-opacity:1;stroke:#000000;stroke-width:0.25509617;stroke-linecap:round;stroke-linejoin:round;stroke-miterlimit:4;stroke-opacity:1;stroke-dashoffset:0;font-family:Liberation Serif;-inkscape-font-specification:Babelfish"
       d="m 12.632794,1046.4186 c -0.25956,0 -0.454228,-0.077 -0.584007,-0.2315 -0.127076,-0.1544 -0.190614,-0.3711 -0.190613,-0.6501 l 0,-2.6774 -0.498837,0 0,-0.1828 0.506949,-0.1584 0.409615,-0.8654 0.255502,0 0,0.8654 0.871954,0 0,0.3412 -0.871954,0 0,2.6043 c -10e-7,0.176 0.0392,0.3088 0.117613,0.3982 0.08111,0.089 0.186555,0.134 0.316336,0.134 0.100036,0 0.198723,-0.01 0.296059,-0.02 0.100036,-0.014 0.191963,-0.028 0.27578,-0.045 l 0,0.264 c -0.04056,0.027 -0.09463,0.055 -0.162223,0.082 -0.06489,0.027 -0.137893,0.05 -0.219003,0.069 -0.07841,0.021 -0.162225,0.039 -0.251447,0.053 -0.08922,0.014 -0.179799,0.02 -0.271724,0.02"
       inkscape:connector-curvature="0" />
    <path
       id="path3733"
       style="font-size:9.77654648px;font-style:normal;font-variant:normal;font-weight:normal;font-stretch:normal;text-align:start;writing-mode:lr-tb;text-anchor:start;fill:#000000;fill-opacity:1;stroke:#000000;stroke-width:0.25509617;stroke-linecap:round;stroke-linejoin:round;stroke-miterlimit:4;stroke-opacity:1;stroke-dashoffset:0;font-family:Liberation Serif;-inkscape-font-specification:Babelfish"
       d="m 13.739222,1048.1088 0,-0.3413 c 0.202779,-0.1165 0.377169,-0.2519 0.523171,-0.4063 0.146001,-0.1516 0.26902,-0.3169 0.36906,-0.4957 0.100036,-0.1761 0.179796,-0.3642 0.239279,-0.5646 0.06219,-0.2032 0.108148,-0.4118 0.13789,-0.6257 0.03245,-0.2168 0.05407,-0.4375 0.06489,-0.6622 0.01082,-0.2276 0.01622,-0.4551 0.01622,-0.6826 -2e-6,-0.3413 -0.01352,-0.6785 -0.04056,-1.0116 -0.02434,-0.3332 -0.08382,-0.6487 -0.178447,-0.9467 -0.09193,-0.3007 -0.227114,-0.5756 -0.405559,-0.8247 -0.178447,-0.2519 -0.420431,-0.4659 -0.725951,-0.6419 l 0,-0.3413 c 0.359595,0.1924 0.673227,0.4009 0.940897,0.6256 0.267668,0.2249 0.489374,0.4849 0.665118,0.7801 0.178444,0.2952 0.310927,0.6352 0.397449,1.0198 0.08652,0.3819 0.129777,0.8287 0.129779,1.3407 -2e-6,0.5119 -0.04326,0.9602 -0.129779,1.3448 -0.08652,0.3846 -0.219005,0.7245 -0.397449,1.0197 -0.175744,0.2979 -0.39745,0.5593 -0.665118,0.7841 -0.26767,0.2276 -0.581302,0.4375 -0.940897,0.6298"
       inkscape:connector-curvature="0" />
    <rect
       ry="2.5365337e-06"
       rx="1.8662621e-06"
       y="1036.3517"
       x="-0.0090184584"
       height="16"
       width="2"
       id="rect3089"
       style="fill:#8c0000;fill-opacity:1;stroke:none" />
  </g>
</svg>
