<?xml version="1.0" encoding="UTF-8" standalone="no"?>
<!-- Created with Inkscape (http://www.inkscape.org/) -->

<svg
   xmlns:dc="http://purl.org/dc/elements/1.1/"
   xmlns:cc="http://creativecommons.org/ns#"
   xmlns:rdf="http://www.w3.org/1999/02/22-rdf-syntax-ns#"
   xmlns:svg="http://www.w3.org/2000/svg"
   xmlns="http://www.w3.org/2000/svg"
   xmlns:xlink="http://www.w3.org/1999/xlink"
   xmlns:sodipodi="http://sodipodi.sourceforge.net/DTD/sodipodi-0.dtd"
   xmlns:inkscape="http://www.inkscape.org/namespaces/inkscape"
   width="16"
   height="16"
   id="svg2"
   version="1.1"
   inkscape:version="0.47 r22583"
   sodipodi:docname="converter.svg"
   inkscape:export-filename="/media/usb-data/knime/img/org.knime.ip/src/org/knime/ip/node/converter/converter.png"
   inkscape:export-xdpi="90"
   inkscape:export-ydpi="90">
  <defs
     id="defs4">
    <marker
       inkscape:stockid="Arrow1Send"
       orient="auto"
       refY="0.0"
       refX="0.0"
       id="Arrow1Send"
       style="overflow:visible;">
      <path
         id="path3935"
         d="M 0.0,0.0 L 5.0,-5.0 L -12.5,0.0 L 5.0,5.0 L 0.0,0.0 z "
         style="fill-rule:evenodd;stroke:#000000;stroke-width:1.0pt;marker-start:none;"
         transform="scale(0.2) rotate(180) translate(6,0)" />
    </marker>
    <marker
       inkscape:stockid="Arrow1Sstart"
       orient="auto"
       refY="0.0"
       refX="0.0"
       id="Arrow1Sstart"
       style="overflow:visible">
      <path
         id="path3932"
         d="M 0.0,0.0 L 5.0,-5.0 L -12.5,0.0 L 5.0,5.0 L 0.0,0.0 z "
         style="fill-rule:evenodd;stroke:#000000;stroke-width:1.0pt;marker-start:none"
         transform="scale(0.2) translate(6,0)" />
    </marker>
    <marker
       inkscape:stockid="Arrow2Lstart"
       orient="auto"
       refY="0.0"
       refX="0.0"
       id="Arrow2Lstart"
       style="overflow:visible">
      <path
         id="path3938"
         style="font-size:12.0;fill-rule:evenodd;stroke-width:0.62500000;stroke-linejoin:round"
         d="M 8.7185878,4.0337352 L -2.2072895,0.016013256 L 8.7185884,-4.0017078 C 6.9730900,-1.6296469 6.9831476,1.6157441 8.7185878,4.0337352 z "
         transform="scale(1.1) translate(1,0)" />
    </marker>
    <linearGradient
       id="linearGradient3704">
      <stop
         id="stop3706"
         offset="0"
         style="stop-color:#ffffff;stop-opacity:1;" />
      <stop
         id="stop3708"
         offset="1"
         style="stop-color:#000000;stop-opacity:1;" />
    </linearGradient>
    <linearGradient
       id="linearGradient3658">
      <stop
         style="stop-color:#000000;stop-opacity:1;"
         offset="0"
         id="stop3660" />
      <stop
         style="stop-color:#ffffff;stop-opacity:1;"
         offset="1"
         id="stop3662" />
    </linearGradient>
    <linearGradient
       inkscape:collect="always"
       id="linearGradient2854">
      <stop
         style="stop-color:#00ff00;stop-opacity:1;"
         offset="0"
         id="stop2856" />
      <stop
         style="stop-color:#ff0000;stop-opacity:1;"
         offset="1"
         id="stop2858" />
    </linearGradient>
    <linearGradient
       inkscape:collect="always"
       id="linearGradient2842">
      <stop
         style="stop-color:#008080;stop-opacity:1;"
         offset="0"
         id="stop2844" />
      <stop
         style="stop-color:#008080;stop-opacity:0"
         offset="1"
         id="stop2846" />
    </linearGradient>
    <marker
       inkscape:stockid="Arrow2Send"
       orient="auto"
       refY="0.0"
       refX="0.0"
       id="Arrow2Send"
       style="overflow:visible;">
      <path
         id="path3744"
         style="font-size:12.0;fill-rule:evenodd;stroke-width:0.62500000;stroke-linejoin:round;"
         d="M 8.7185878,4.0337352 L -2.2072895,0.016013256 L 8.7185884,-4.0017078 C 6.9730900,-1.6296469 6.9831476,1.6157441 8.7185878,4.0337352 z "
         transform="scale(0.3) rotate(180) translate(-2.3,0)" />
    </marker>
    <marker
       inkscape:stockid="Arrow1Mend"
       orient="auto"
       refY="0.0"
       refX="0.0"
       id="Arrow1Mend"
       style="overflow:visible;">
      <path
         id="path3720"
         d="M 0.0,0.0 L 5.0,-5.0 L -12.5,0.0 L 5.0,5.0 L 0.0,0.0 z "
         style="fill-rule:evenodd;stroke:#000000;stroke-width:1.0pt;marker-start:none;"
         transform="scale(0.4) rotate(180) translate(10,0)" />
    </marker>
    <marker
       inkscape:stockid="DiamondS"
       orient="auto"
       refY="0.0"
       refX="0.0"
       id="DiamondS"
       style="overflow:visible">
      <path
         id="path3797"
         d="M 0,-7.0710768 L -7.0710894,0 L 0,7.0710589 L 7.0710462,0 L 0,-7.0710768 z "
         style="fill-rule:evenodd;stroke:#000000;stroke-width:1.0pt;marker-start:none"
         transform="scale(0.2)" />
    </marker>
    <marker
       inkscape:stockid="Arrow2Mend"
       orient="auto"
       refY="0.0"
       refX="0.0"
       id="Arrow2Mend"
       style="overflow:visible;">
      <path
         id="path3738"
         style="font-size:12.0;fill-rule:evenodd;stroke-width:0.62500000;stroke-linejoin:round;"
         d="M 8.7185878,4.0337352 L -2.2072895,0.016013256 L 8.7185884,-4.0017078 C 6.9730900,-1.6296469 6.9831476,1.6157441 8.7185878,4.0337352 z "
         transform="scale(0.6) rotate(180) translate(0,0)" />
    </marker>
    <marker
       inkscape:stockid="Arrow1Lend"
       orient="auto"
       refY="0.0"
       refX="0.0"
       id="Arrow1Lend"
       style="overflow:visible;">
      <path
         id="path3714"
         d="M 0.0,0.0 L 5.0,-5.0 L -12.5,0.0 L 5.0,5.0 L 0.0,0.0 z "
         style="fill-rule:evenodd;stroke:#000000;stroke-width:1.0pt;marker-start:none;"
         transform="scale(0.8) rotate(180) translate(12.5,0)" />
    </marker>
    <inkscape:perspective
       sodipodi:type="inkscape:persp3d"
       inkscape:vp_x="0 : 526.18109 : 1"
       inkscape:vp_y="0 : 1000 : 0"
       inkscape:vp_z="1371.7932 : 339.99927 : 1"
       inkscape:persp3d-origin="372.04724 : 350.78739 : 1"
       id="perspective10" />
    <inkscape:perspective
       id="perspective3628"
       inkscape:persp3d-origin="0.5 : 0.33333333 : 1"
       inkscape:vp_z="1 : 0.5 : 1"
       inkscape:vp_y="0 : 1000 : 0"
       inkscape:vp_x="0 : 0.5 : 1"
       sodipodi:type="inkscape:persp3d" />
    <inkscape:perspective
       id="perspective3650"
       inkscape:persp3d-origin="0.5 : 0.33333333 : 1"
       inkscape:vp_z="1 : 0.5 : 1"
       inkscape:vp_y="0 : 1000 : 0"
       inkscape:vp_x="0 : 0.5 : 1"
       sodipodi:type="inkscape:persp3d" />
    <inkscape:perspective
       id="perspective3679"
       inkscape:persp3d-origin="0.5 : 0.33333333 : 1"
       inkscape:vp_z="1 : 0.5 : 1"
       inkscape:vp_y="0 : 1000 : 0"
       inkscape:vp_x="0 : 0.5 : 1"
       sodipodi:type="inkscape:persp3d" />
    <inkscape:perspective
       id="perspective3679-7"
       inkscape:persp3d-origin="0.5 : 0.33333333 : 1"
       inkscape:vp_z="1 : 0.5 : 1"
       inkscape:vp_y="0 : 1000 : 0"
       inkscape:vp_x="0 : 0.5 : 1"
       sodipodi:type="inkscape:persp3d" />
    <inkscape:perspective
       id="perspective2844"
       inkscape:persp3d-origin="0.5 : 0.33333333 : 1"
       inkscape:vp_z="1 : 0.5 : 1"
       inkscape:vp_y="0 : 1000 : 0"
       inkscape:vp_x="0 : 0.5 : 1"
       sodipodi:type="inkscape:persp3d" />
    <inkscape:perspective
       id="perspective2866"
       inkscape:persp3d-origin="0.5 : 0.33333333 : 1"
       inkscape:vp_z="1 : 0.5 : 1"
       inkscape:vp_y="0 : 1000 : 0"
       inkscape:vp_x="0 : 0.5 : 1"
       sodipodi:type="inkscape:persp3d" />
    <inkscape:perspective
       id="perspective2888"
       inkscape:persp3d-origin="0.5 : 0.33333333 : 1"
       inkscape:vp_z="1 : 0.5 : 1"
       inkscape:vp_y="0 : 1000 : 0"
       inkscape:vp_x="0 : 0.5 : 1"
       sodipodi:type="inkscape:persp3d" />
    <marker
       inkscape:stockid="Arrow2Send"
       orient="auto"
       refY="0"
       refX="0"
       id="Arrow2Send-5"
       style="overflow:visible">
      <path
         id="path3744-5"
         style="font-size:12px;fill-rule:evenodd;stroke-width:0.625;stroke-linejoin:round"
         d="M 8.7185878,4.0337352 -2.2072895,0.01601326 8.7185884,-4.0017078 c -1.7454984,2.3720609 -1.7354408,5.6174519 -6e-7,8.035443 z"
         transform="matrix(-0.3,0,0,-0.3,0.69,0)" />
    </marker>
    <linearGradient
       inkscape:collect="always"
       xlink:href="#linearGradient2842"
       id="linearGradient2848"
       x1="10.126055"
       y1="13"
       x2="4.4061646"
       y2="13"
       gradientUnits="userSpaceOnUse" />
    <linearGradient
       inkscape:collect="always"
       xlink:href="#linearGradient2854"
       id="linearGradient2860"
       x1="4.71875"
       y1="13.65625"
       x2="8.6875963"
       y2="13.65625"
       gradientUnits="userSpaceOnUse" />
    <inkscape:perspective
       id="perspective3694"
       inkscape:persp3d-origin="0.5 : 0.33333333 : 1"
       inkscape:vp_z="1 : 0.5 : 1"
       inkscape:vp_y="0 : 1000 : 0"
       inkscape:vp_x="0 : 0.5 : 1"
       sodipodi:type="inkscape:persp3d" />
    <inkscape:perspective
       id="perspective3674"
       inkscape:persp3d-origin="0.5 : 0.33333333 : 1"
       inkscape:vp_z="1 : 0.5 : 1"
       inkscape:vp_y="0 : 1000 : 0"
       inkscape:vp_x="0 : 0.5 : 1"
       sodipodi:type="inkscape:persp3d" />
    <linearGradient
       inkscape:collect="always"
       xlink:href="#linearGradient3658-7"
       id="linearGradient3664-4"
       x1="2.2025547"
       y1="7.5912414"
       x2="13.622262"
       y2="7.5912414"
       gradientUnits="userSpaceOnUse"
       gradientTransform="translate(1.8253336e-8,1036.3622)" />
    <linearGradient
       id="linearGradient3658-7">
      <stop
         style="stop-color:#000000;stop-opacity:1;"
         offset="0"
         id="stop3660-6" />
      <stop
         style="stop-color:#ffffff;stop-opacity:1;"
         offset="1"
         id="stop3662-5" />
    </linearGradient>
    <linearGradient
       inkscape:collect="always"
       xlink:href="#linearGradient3658"
       id="linearGradient3714"
       gradientUnits="userSpaceOnUse"
       gradientTransform="translate(1.8620606e-8,1034.8439)"
       x1="2.2025547"
       y1="7.5912412"
       x2="13.622262"
       y2="7.5912412" />
    <linearGradient
       inkscape:collect="always"
       xlink:href="#linearGradient3704"
       id="linearGradient3716"
       gradientUnits="userSpaceOnUse"
       gradientTransform="translate(5.1337738e-7,1034.8439)"
       x1="2.2025547"
       y1="7.5912414"
       x2="13.622262"
       y2="7.5912414" />
    <linearGradient
       inkscape:collect="always"
       xlink:href="#linearGradient3704"
       id="linearGradient5176"
       gradientUnits="userSpaceOnUse"
       gradientTransform="matrix(0,1,-0.99999998,0,-1036.3621,1.4325297e-5)"
       x1="1.4999857"
       y1="8.2617189e-05"
       x2="1.4999857"
       y2="13.000083" />
    <linearGradient
       inkscape:collect="always"
       xlink:href="#linearGradient3658"
       id="linearGradient5179"
       gradientUnits="userSpaceOnUse"
       gradientTransform="translate(7.3997879e-8,1036.3622)"
       x1="3"
       y1="14.499983"
       x2="16"
       y2="14.499983" />
    <linearGradient
       inkscape:collect="always"
       xlink:href="#linearGradient3658-7"
       id="linearGradient5189"
       x1="3.2206905"
       y1="6.5030918"
       x2="15.855708"
       y2="6.5030918"
       gradientUnits="userSpaceOnUse"
       gradientTransform="translate(0,1036.3622)" />
    <inkscape:perspective
       id="perspective5199"
       inkscape:persp3d-origin="0.5 : 0.33333333 : 1"
       inkscape:vp_z="1 : 0.5 : 1"
       inkscape:vp_y="0 : 1000 : 0"
       inkscape:vp_x="0 : 0.5 : 1"
       sodipodi:type="inkscape:persp3d" />
    <linearGradient
       inkscape:collect="always"
       xlink:href="#linearGradient5183-7"
       id="linearGradient5189-4"
       x1="3.2206905"
       y1="6.5030918"
       x2="15.855708"
       y2="6.5030918"
       gradientUnits="userSpaceOnUse" />
    <linearGradient
       inkscape:collect="always"
       id="linearGradient5183-7">
      <stop
         style="stop-color:#000000;stop-opacity:1;"
         offset="0"
         id="stop5185-4" />
      <stop
         style="stop-color:#000000;stop-opacity:0;"
         offset="1"
         id="stop5187-4" />
    </linearGradient>
    <linearGradient
       y2="12.5243"
       x2="9.3417702"
       y1="-0.50919998"
       x1="9.3417702"
       gradientUnits="userSpaceOnUse"
       id="linearGradient5208"
       xlink:href="#linearGradient3658-7"
       inkscape:collect="always"
       gradientTransform="translate(9.2950105e-8,1036.3622)" />
    <inkscape:perspective
       id="perspective5237"
       inkscape:persp3d-origin="0.5 : 0.33333333 : 1"
       inkscape:vp_z="1 : 0.5 : 1"
       inkscape:vp_y="0 : 1000 : 0"
       inkscape:vp_x="0 : 0.5 : 1"
       sodipodi:type="inkscape:persp3d" />
    <linearGradient
       y2="12.5243"
       x2="9.3417702"
       y1="-0.50919998"
       x1="9.3417702"
       gradientUnits="userSpaceOnUse"
       id="linearGradient5208-7"
       xlink:href="#linearGradient3658-7-0"
       inkscape:collect="always"
       gradientTransform="translate(9.2950105e-8,1036.3622)" />
    <linearGradient
       id="linearGradient3658-7-0">
      <stop
         style="stop-color:#000000;stop-opacity:1;"
         offset="0"
         id="stop3660-6-5" />
      <stop
         style="stop-color:#ffffff;stop-opacity:1;"
         offset="1"
         id="stop3662-5-1" />
    </linearGradient>
    <linearGradient
       y2="6.6269498"
       x2="16.063986"
       y1="6.6269498"
       x1="3.0124128"
       gradientUnits="userSpaceOnUse"
       id="linearGradient5246"
       xlink:href="#linearGradient3658-7-0"
       inkscape:collect="always"
       gradientTransform="translate(-9.6117121e-8,1036.3622)" />
  </defs>
  <sodipodi:namedview
     id="base"
     pagecolor="#ffffff"
     bordercolor="#666666"
     borderopacity="1.0"
     inkscape:pageopacity="0.0"
     inkscape:pageshadow="2"
     inkscape:zoom="12.109204"
     inkscape:cx="3.868033"
     inkscape:cy="10.120963"
     inkscape:document-units="px"
     inkscape:current-layer="layer1"
     showgrid="false"
     inkscape:window-width="1120"
     inkscape:window-height="785"
     inkscape:window-x="798"
     inkscape:window-y="66"
     inkscape:window-maximized="0" />
  <metadata
     id="metadata7">
    <rdf:RDF>
      <cc:Work
         rdf:about="">
        <dc:format>image/svg+xml</dc:format>
        <dc:type
           rdf:resource="http://purl.org/dc/dcmitype/StillImage" />
        <dc:title></dc:title>
      </cc:Work>
    </rdf:RDF>
  </metadata>
  <g
     inkscape:label="Layer 1"
     inkscape:groupmode="layer"
     id="layer1"
     transform="translate(0,-1036.3622)">
    <path
       id="path3725"
       style="font-size:9.77654648000000037px;font-style:normal;font-variant:normal;font-weight:normal;font-stretch:normal;text-align:start;writing-mode:lr-tb;text-anchor:start;fill:#333333;fill-opacity:1;stroke:#333333;stroke-width:0.30000004000000002;stroke-linecap:round;stroke-linejoin:round;stroke-miterlimit:4;stroke-opacity:1;stroke-dashoffset:0;font-family:Liberation Serif;-inkscape-font-specification:Babelfish"
       d="m 1.0705118,1044.3551 c -1.4e-6,0.2675 0.00636,0.5351 0.019078,0.8027 0.012717,0.2643 0.036565,0.5239 0.071542,0.7788 0.038154,0.2516 0.092208,0.4969 0.1621627,0.7358 0.07313,0.2357 0.1685203,0.457 0.2861694,0.6641 0.1176455,0.2102 0.2623199,0.4046 0.4340237,0.5829 0.1716993,0.1816 0.3767872,0.3408 0.6152645,0.4778 l 0,0.4014 c -0.4260772,-0.2262 -0.7965073,-0.473 -1.1112915,-0.7407 -0.3116083,-0.2643 -0.57234023,-0.5717 -0.7821966,-0.9221 -0.2066788,-0.3472 -0.36089219,-0.7469 -0.46264066,-1.1992 -0.10174962,-0.4523 -0.15262415,-0.9795 -0.15262372,-1.5815 -4.3e-7,-0.6021 0.0508741,-1.1276 0.15262372,-1.5767 0.10174847,-0.4523 0.25596186,-0.8521 0.46264066,-1.1993 0.20985637,-0.3472 0.4705883,-0.653 0.7821966,-0.9174 0.3147842,-0.2643 0.6852143,-0.5095 1.1112915,-0.7357 l 0,0.4013 c -0.3593044,0.207 -0.6438837,0.4587 -0.853739,0.7549 -0.2098595,0.293 -0.3704322,0.6163 -0.4817186,0.9699 -0.10811,0.3504 -0.1780625,0.7215 -0.2098576,1.1133 -0.028618,0.3918 -0.042927,0.7883 -0.042925,1.1897" />
    <path
       id="path3727"
       style="font-size:9.77654648000000037px;font-style:normal;font-variant:normal;font-weight:normal;font-stretch:normal;text-align:start;writing-mode:lr-tb;text-anchor:start;fill:#782144;fill-opacity:1;stroke:#782144;stroke-width:0.30000004000000002;stroke-linecap:round;stroke-linejoin:round;stroke-miterlimit:4;stroke-opacity:1;stroke-dashoffset:0;font-family:Liberation Serif;-inkscape-font-specification:Babelfish"
       d="m 4.6616702,1040.7573 c -1.8e-6,0.07 -0.01431,0.137 -0.042925,0.2007 -0.02544,0.061 -0.062005,0.1147 -0.1096983,0.1624 -0.047697,0.048 -0.1033405,0.086 -0.1669321,0.1147 -0.063595,0.025 -0.1303675,0.038 -0.2003187,0.038 -0.069953,0 -0.1367265,-0.013 -0.2003186,-0.038 -0.060415,-0.029 -0.1144688,-0.067 -0.1621627,-0.1147 -0.047696,-0.048 -0.085851,-0.1019 -0.1144678,-0.1624 -0.025438,-0.064 -0.038156,-0.1306 -0.038156,-0.2007 -7e-7,-0.07 0.012718,-0.1369 0.038156,-0.2007 0.028616,-0.064 0.066772,-0.1194 0.1144678,-0.1672 0.047694,-0.048 0.1017481,-0.084 0.1621627,-0.1099 0.063592,-0.029 0.1303649,-0.043 0.2003186,-0.043 0.069951,0 0.1367241,0.014 0.2003187,0.043 0.063592,0.025 0.1192357,0.062 0.1669321,0.1099 0.047693,0.048 0.08426,0.1036 0.1096983,0.1672 0.028615,0.064 0.042924,0.1306 0.042925,0.2007 m -0.047695,5.6237 0.7678881,0.1194 0,0.2149 -2.3227422,0 0,-0.2149 0.7631186,-0.1194 0,-3.8224 -0.6343424,-0.1194 0,-0.2151 1.4260779,0 0,4.1569" />
    <path
       id="path3729"
       style="font-size:9.77654648000000037px;font-style:normal;font-variant:normal;font-weight:normal;font-stretch:normal;text-align:start;writing-mode:lr-tb;text-anchor:start;fill:#782144;fill-opacity:1;stroke:#782144;stroke-width:0.30000004000000002;stroke-linecap:round;stroke-linejoin:round;stroke-miterlimit:4;stroke-opacity:1;stroke-dashoffset:0;font-family:Liberation Serif;-inkscape-font-specification:Babelfish"
       d="m 7.1084193,1042.5872 c 0.089028,-0.051 0.1939576,-0.1051 0.3147865,-0.1624 0.1240047,-0.057 0.2527809,-0.1099 0.3863287,-0.1577 0.1335434,-0.048 0.2670891,-0.086 0.4006373,-0.1147 0.1335429,-0.032 0.2575496,-0.048 0.3720203,-0.048 0.1716985,0 0.3290916,0.024 0.4721797,0.072 0.1430811,0.048 0.2654979,0.1243 0.3672508,0.2293 0.1049248,0.1052 0.1860061,0.2422 0.243244,0.411 0.06041,0.1689 0.090616,0.3726 0.09062,0.6115 l 0,2.9529 0.5437224,0.1194 0,0.2149 -1.9316444,0 0,-0.2149 0.5961865,-0.1194 0,-2.8669 c -3.4e-6,-0.2643 -0.065186,-0.4714 -0.1955492,-0.621 -0.1271896,-0.153 -0.3259181,-0.2294 -0.5961864,-0.2294 -0.089033,0 -0.182833,0 -0.2814,0.014 -0.098572,0.01 -0.1955513,0.021 -0.290939,0.034 -0.095392,0.013 -0.186012,0.029 -0.271861,0.048 -0.082673,0.016 -0.1526254,0.03 -0.2098576,0.043 l 0,3.5787 0.6057254,0.1194 0,0.2149 -1.9364135,0 0,-0.2149 0.5389526,-0.1194 0,-3.8224 -0.5389526,-0.1194 0,-0.2151 1.2782237,0 0.042925,0.3631" />
    <path
       id="path3731"
       style="font-size:9.77654648000000037px;font-style:normal;font-variant:normal;font-weight:normal;font-stretch:normal;text-align:start;writing-mode:lr-tb;text-anchor:start;fill:#782144;fill-opacity:1;stroke:#782144;stroke-width:0.30000004000000002;stroke-linecap:round;stroke-linejoin:round;stroke-miterlimit:4;stroke-opacity:1;stroke-dashoffset:0;font-family:Liberation Serif;-inkscape-font-specification:Babelfish"
       d="m 12.040074,1046.8109 c -0.30525,0 -0.534184,-0.091 -0.686808,-0.2723 -0.149445,-0.1816 -0.224167,-0.4364 -0.224166,-0.7645 l 0,-3.1487 -0.586646,0 0,-0.215 0.596186,-0.1863 0.481718,-1.0177 0.300478,0 0,1.0177 1.025441,0 0,0.4013 -1.025441,0 0,3.0627 c -10e-7,0.207 0.0461,0.3632 0.138316,0.4683 0.09539,0.105 0.219394,0.1576 0.372019,0.1576 0.117646,0 0.233704,-0.01 0.348174,-0.024 0.117645,-0.016 0.225753,-0.033 0.324325,-0.053 l 0,0.3105 c -0.0477,0.032 -0.111291,0.064 -0.190779,0.096 -0.07631,0.032 -0.162166,0.059 -0.257553,0.081 -0.09221,0.025 -0.190782,0.046 -0.295709,0.062 -0.10493,0.016 -0.211449,0.024 -0.319555,0.024" />
    <path
       id="path3733"
       style="font-size:9.77654648000000037px;font-style:normal;font-variant:normal;font-weight:normal;font-stretch:normal;text-align:start;writing-mode:lr-tb;text-anchor:start;fill:#333333;fill-opacity:1;stroke:#333333;stroke-width:0.30000004000000002;stroke-linecap:round;stroke-linejoin:round;stroke-miterlimit:4;stroke-opacity:1;stroke-dashoffset:0;font-family:Liberation Serif;-inkscape-font-specification:Babelfish"
       d="m 13.341263,1048.7986 0,-0.4014 c 0.238474,-0.137 0.443562,-0.2962 0.615264,-0.4778 0.171701,-0.1783 0.316375,-0.3727 0.434024,-0.5829 0.117646,-0.2071 0.211445,-0.4284 0.281399,-0.6641 0.07314,-0.2389 0.127185,-0.4842 0.162163,-0.7358 0.03816,-0.2549 0.06359,-0.5145 0.07631,-0.7788 0.01272,-0.2676 0.01907,-0.5352 0.01907,-0.8027 -2e-6,-0.4014 -0.0159,-0.7979 -0.0477,-1.1897 -0.02862,-0.3918 -0.09857,-0.7629 -0.209858,-1.1133 -0.108109,-0.3536 -0.267092,-0.6769 -0.476948,-0.9699 -0.209859,-0.2962 -0.494439,-0.5479 -0.853739,-0.7549 l 0,-0.4013 c 0.422894,0.2262 0.791734,0.4714 1.106521,0.7357 0.314785,0.2644 0.575517,0.5702 0.782197,0.9174 0.209855,0.3472 0.365658,0.747 0.467411,1.1993 0.101746,0.4491 0.152621,0.9746 0.152623,1.5767 -2e-6,0.602 -0.05087,1.1292 -0.152623,1.5815 -0.101753,0.4523 -0.257556,0.852 -0.467411,1.1992 -0.20668,0.3504 -0.467412,0.6578 -0.782197,0.9221 -0.314787,0.2677 -0.683627,0.5145 -1.106521,0.7407" />
  </g>
</svg>
