<?xml version="1.0" encoding="UTF-8" standalone="no"?>
<!-- Created with Inkscape (http://www.inkscape.org/) -->

<svg
   xmlns:dc="http://purl.org/dc/elements/1.1/"
   xmlns:cc="http://creativecommons.org/ns#"
   xmlns:rdf="http://www.w3.org/1999/02/22-rdf-syntax-ns#"
   xmlns:svg="http://www.w3.org/2000/svg"
   xmlns="http://www.w3.org/2000/svg"
   xmlns:sodipodi="http://sodipodi.sourceforge.net/DTD/sodipodi-0.dtd"
   xmlns:inkscape="http://www.inkscape.org/namespaces/inkscape"
   width="16"
   height="16"
   id="svg2"
   version="1.1"
   inkscape:version="0.47 r22583"
   sodipodi:docname="imagewriter.svg"
   inkscape:export-filename="/media/usb-data/knime/img/org.knime.ip/src/org/knime/ip/node/io/imagewriter/imagewriter.png"
   inkscape:export-xdpi="90"
   inkscape:export-ydpi="90">
  <defs
     id="defs4">
    <marker
       inkscape:stockid="Arrow2Send"
       orient="auto"
       refY="0.0"
       refX="0.0"
       id="Arrow2Send"
       style="overflow:visible;">
      <path
         id="path3744"
         style="font-size:12.0;fill-rule:evenodd;stroke-width:0.62500000;stroke-linejoin:round;"
         d="M 8.7185878,4.0337352 L -2.2072895,0.016013256 L 8.7185884,-4.0017078 C 6.9730900,-1.6296469 6.9831476,1.6157441 8.7185878,4.0337352 z "
         transform="scale(0.3) rotate(180) translate(-2.3,0)" />
    </marker>
    <marker
       inkscape:stockid="Arrow1Mend"
       orient="auto"
       refY="0.0"
       refX="0.0"
       id="Arrow1Mend"
       style="overflow:visible;">
      <path
         id="path3720"
         d="M 0.0,0.0 L 5.0,-5.0 L -12.5,0.0 L 5.0,5.0 L 0.0,0.0 z "
         style="fill-rule:evenodd;stroke:#000000;stroke-width:1.0pt;marker-start:none;"
         transform="scale(0.4) rotate(180) translate(10,0)" />
    </marker>
    <marker
       inkscape:stockid="DiamondS"
       orient="auto"
       refY="0.0"
       refX="0.0"
       id="DiamondS"
       style="overflow:visible">
      <path
         id="path3797"
         d="M 0,-7.0710768 L -7.0710894,0 L 0,7.0710589 L 7.0710462,0 L 0,-7.0710768 z "
         style="fill-rule:evenodd;stroke:#000000;stroke-width:1.0pt;marker-start:none"
         transform="scale(0.2)" />
    </marker>
    <marker
       inkscape:stockid="Arrow2Mend"
       orient="auto"
       refY="0.0"
       refX="0.0"
       id="Arrow2Mend"
       style="overflow:visible;">
      <path
         id="path3738"
         style="font-size:12.0;fill-rule:evenodd;stroke-width:0.62500000;stroke-linejoin:round;"
         d="M 8.7185878,4.0337352 L -2.2072895,0.016013256 L 8.7185884,-4.0017078 C 6.9730900,-1.6296469 6.9831476,1.6157441 8.7185878,4.0337352 z "
         transform="scale(0.6) rotate(180) translate(0,0)" />
    </marker>
    <marker
       inkscape:stockid="Arrow1Lend"
       orient="auto"
       refY="0.0"
       refX="0.0"
       id="Arrow1Lend"
       style="overflow:visible;">
      <path
         id="path3714"
         d="M 0.0,0.0 L 5.0,-5.0 L -12.5,0.0 L 5.0,5.0 L 0.0,0.0 z "
         style="fill-rule:evenodd;stroke:#000000;stroke-width:1.0pt;marker-start:none;"
         transform="scale(0.8) rotate(180) translate(12.5,0)" />
    </marker>
    <inkscape:perspective
       sodipodi:type="inkscape:persp3d"
       inkscape:vp_x="0 : 526.18109 : 1"
       inkscape:vp_y="0 : 1000 : 0"
       inkscape:vp_z="1371.7932 : 339.99927 : 1"
       inkscape:persp3d-origin="372.04724 : 350.78739 : 1"
       id="perspective10" />
    <inkscape:perspective
       id="perspective3628"
       inkscape:persp3d-origin="0.5 : 0.33333333 : 1"
       inkscape:vp_z="1 : 0.5 : 1"
       inkscape:vp_y="0 : 1000 : 0"
       inkscape:vp_x="0 : 0.5 : 1"
       sodipodi:type="inkscape:persp3d" />
    <inkscape:perspective
       id="perspective3650"
       inkscape:persp3d-origin="0.5 : 0.33333333 : 1"
       inkscape:vp_z="1 : 0.5 : 1"
       inkscape:vp_y="0 : 1000 : 0"
       inkscape:vp_x="0 : 0.5 : 1"
       sodipodi:type="inkscape:persp3d" />
    <inkscape:perspective
       id="perspective3679"
       inkscape:persp3d-origin="0.5 : 0.33333333 : 1"
       inkscape:vp_z="1 : 0.5 : 1"
       inkscape:vp_y="0 : 1000 : 0"
       inkscape:vp_x="0 : 0.5 : 1"
       sodipodi:type="inkscape:persp3d" />
    <inkscape:perspective
       id="perspective3679-7"
       inkscape:persp3d-origin="0.5 : 0.33333333 : 1"
       inkscape:vp_z="1 : 0.5 : 1"
       inkscape:vp_y="0 : 1000 : 0"
       inkscape:vp_x="0 : 0.5 : 1"
       sodipodi:type="inkscape:persp3d" />
    <inkscape:perspective
       id="perspective2844"
       inkscape:persp3d-origin="0.5 : 0.33333333 : 1"
       inkscape:vp_z="1 : 0.5 : 1"
       inkscape:vp_y="0 : 1000 : 0"
       inkscape:vp_x="0 : 0.5 : 1"
       sodipodi:type="inkscape:persp3d" />
    <inkscape:perspective
       id="perspective2866"
       inkscape:persp3d-origin="0.5 : 0.33333333 : 1"
       inkscape:vp_z="1 : 0.5 : 1"
       inkscape:vp_y="0 : 1000 : 0"
       inkscape:vp_x="0 : 0.5 : 1"
       sodipodi:type="inkscape:persp3d" />
    <inkscape:perspective
       id="perspective2888"
       inkscape:persp3d-origin="0.5 : 0.33333333 : 1"
       inkscape:vp_z="1 : 0.5 : 1"
       inkscape:vp_y="0 : 1000 : 0"
       inkscape:vp_x="0 : 0.5 : 1"
       sodipodi:type="inkscape:persp3d" />
    <marker
       inkscape:stockid="Arrow2Send"
       orient="auto"
       refY="0"
       refX="0"
       id="Arrow2Send-5"
       style="overflow:visible">
      <path
         id="path3744-5"
         style="font-size:12px;fill-rule:evenodd;stroke-width:0.625;stroke-linejoin:round"
         d="M 8.7185878,4.0337352 -2.2072895,0.01601326 8.7185884,-4.0017078 c -1.7454984,2.3720609 -1.7354408,5.6174519 -6e-7,8.035443 z"
         transform="matrix(-0.3,0,0,-0.3,0.69,0)" />
    </marker>
    <inkscape:perspective
       sodipodi:type="inkscape:persp3d"
       inkscape:vp_x="0 : 0.5 : 1"
       inkscape:vp_y="0 : 1000 : 0"
       inkscape:vp_z="1 : 0.5 : 1"
       inkscape:persp3d-origin="0.5 : 0.33333333 : 1"
       id="perspective4634" />
    <inkscape:perspective
       sodipodi:type="inkscape:persp3d"
       inkscape:vp_x="0 : 0.5 : 1"
       inkscape:vp_y="0 : 1000 : 0"
       inkscape:vp_z="1 : 0.5 : 1"
       inkscape:persp3d-origin="0.5 : 0.33333333 : 1"
       id="perspective3655" />
    <inkscape:perspective
       sodipodi:type="inkscape:persp3d"
       inkscape:vp_x="0 : 0.5 : 1"
       inkscape:vp_y="0 : 1000 : 0"
       inkscape:vp_z="1 : 0.5 : 1"
       inkscape:persp3d-origin="0.5 : 0.33333333 : 1"
       id="perspective3652" />
    <marker
       style="overflow:visible"
       id="Arrow2Send-5-0"
       refX="0"
       refY="0"
       orient="auto"
       inkscape:stockid="Arrow2Send">
      <path
         transform="matrix(-0.3,0,0,-0.3,0.69,0)"
         d="M 8.7185878,4.0337352 -2.2072895,0.01601326 8.7185884,-4.0017078 c -1.7454984,2.3720609 -1.7354408,5.6174519 -6e-7,8.035443 z"
         style="font-size:12px;fill-rule:evenodd;stroke-width:0.625;stroke-linejoin:round"
         id="path3744-5-7" />
    </marker>
    <inkscape:perspective
       sodipodi:type="inkscape:persp3d"
       inkscape:vp_x="0 : 0.5 : 1"
       inkscape:vp_y="0 : 1000 : 0"
       inkscape:vp_z="1 : 0.5 : 1"
       inkscape:persp3d-origin="0.5 : 0.33333333 : 1"
       id="perspective2888-3" />
    <inkscape:perspective
       sodipodi:type="inkscape:persp3d"
       inkscape:vp_x="0 : 0.5 : 1"
       inkscape:vp_y="0 : 1000 : 0"
       inkscape:vp_z="1 : 0.5 : 1"
       inkscape:persp3d-origin="0.5 : 0.33333333 : 1"
       id="perspective2866-4" />
    <inkscape:perspective
       sodipodi:type="inkscape:persp3d"
       inkscape:vp_x="0 : 0.5 : 1"
       inkscape:vp_y="0 : 1000 : 0"
       inkscape:vp_z="1 : 0.5 : 1"
       inkscape:persp3d-origin="0.5 : 0.33333333 : 1"
       id="perspective2844-4" />
    <inkscape:perspective
       sodipodi:type="inkscape:persp3d"
       inkscape:vp_x="0 : 0.5 : 1"
       inkscape:vp_y="0 : 1000 : 0"
       inkscape:vp_z="1 : 0.5 : 1"
       inkscape:persp3d-origin="0.5 : 0.33333333 : 1"
       id="perspective3679-7-7" />
    <inkscape:perspective
       sodipodi:type="inkscape:persp3d"
       inkscape:vp_x="0 : 0.5 : 1"
       inkscape:vp_y="0 : 1000 : 0"
       inkscape:vp_z="1 : 0.5 : 1"
       inkscape:persp3d-origin="0.5 : 0.33333333 : 1"
       id="perspective3679-4" />
    <inkscape:perspective
       sodipodi:type="inkscape:persp3d"
       inkscape:vp_x="0 : 0.5 : 1"
       inkscape:vp_y="0 : 1000 : 0"
       inkscape:vp_z="1 : 0.5 : 1"
       inkscape:persp3d-origin="0.5 : 0.33333333 : 1"
       id="perspective3650-5" />
    <inkscape:perspective
       sodipodi:type="inkscape:persp3d"
       inkscape:vp_x="0 : 0.5 : 1"
       inkscape:vp_y="0 : 1000 : 0"
       inkscape:vp_z="1 : 0.5 : 1"
       inkscape:persp3d-origin="0.5 : 0.33333333 : 1"
       id="perspective3628-2" />
    <inkscape:perspective
       id="perspective10-5"
       inkscape:persp3d-origin="372.04724 : 350.78739 : 1"
       inkscape:vp_z="1371.7932 : 339.99927 : 1"
       inkscape:vp_y="0 : 1000 : 0"
       inkscape:vp_x="0 : 526.18109 : 1"
       sodipodi:type="inkscape:persp3d" />
    <marker
       style="overflow:visible;"
       id="Arrow1Lend-7"
       refX="0.0"
       refY="0.0"
       orient="auto"
       inkscape:stockid="Arrow1Lend">
      <path
         transform="scale(0.8) rotate(180) translate(12.5,0)"
         style="fill-rule:evenodd;stroke:#000000;stroke-width:1.0pt;marker-start:none;"
         d="M 0.0,0.0 L 5.0,-5.0 L -12.5,0.0 L 5.0,5.0 L 0.0,0.0 z "
         id="path3714-4" />
    </marker>
    <marker
       style="overflow:visible;"
       id="Arrow2Mend-9"
       refX="0.0"
       refY="0.0"
       orient="auto"
       inkscape:stockid="Arrow2Mend">
      <path
         transform="scale(0.6) rotate(180) translate(0,0)"
         d="M 8.7185878,4.0337352 L -2.2072895,0.016013256 L 8.7185884,-4.0017078 C 6.9730900,-1.6296469 6.9831476,1.6157441 8.7185878,4.0337352 z "
         style="font-size:12.0;fill-rule:evenodd;stroke-width:0.62500000;stroke-linejoin:round;"
         id="path3738-3" />
    </marker>
    <marker
       style="overflow:visible"
       id="DiamondS-5"
       refX="0.0"
       refY="0.0"
       orient="auto"
       inkscape:stockid="DiamondS">
      <path
         transform="scale(0.2)"
         style="fill-rule:evenodd;stroke:#000000;stroke-width:1.0pt;marker-start:none"
         d="M 0,-7.0710768 L -7.0710894,0 L 0,7.0710589 L 7.0710462,0 L 0,-7.0710768 z "
         id="path3797-6" />
    </marker>
    <marker
       style="overflow:visible;"
       id="Arrow1Mend-7"
       refX="0.0"
       refY="0.0"
       orient="auto"
       inkscape:stockid="Arrow1Mend">
      <path
         transform="scale(0.4) rotate(180) translate(10,0)"
         style="fill-rule:evenodd;stroke:#000000;stroke-width:1.0pt;marker-start:none;"
         d="M 0.0,0.0 L 5.0,-5.0 L -12.5,0.0 L 5.0,5.0 L 0.0,0.0 z "
         id="path3720-6" />
    </marker>
    <marker
       style="overflow:visible;"
       id="Arrow2Send-55"
       refX="0.0"
       refY="0.0"
       orient="auto"
       inkscape:stockid="Arrow2Send">
      <path
         transform="scale(0.3) rotate(180) translate(-2.3,0)"
         d="M 8.7185878,4.0337352 L -2.2072895,0.016013256 L 8.7185884,-4.0017078 C 6.9730900,-1.6296469 6.9831476,1.6157441 8.7185878,4.0337352 z "
         style="font-size:12.0;fill-rule:evenodd;stroke-width:0.62500000;stroke-linejoin:round;"
         id="path3744-4" />
    </marker>
  </defs>
  <sodipodi:namedview
     id="base"
     pagecolor="#ffffff"
     bordercolor="#666666"
     borderopacity="1.0"
     inkscape:pageopacity="0.0"
     inkscape:pageshadow="2"
     inkscape:zoom="34.25"
     inkscape:cx="7.9416059"
     inkscape:cy="8.0000001"
     inkscape:document-units="px"
     inkscape:current-layer="layer1"
     showgrid="false"
     inkscape:window-width="1120"
     inkscape:window-height="785"
     inkscape:window-x="798"
     inkscape:window-y="66"
     inkscape:window-maximized="0" />
  <metadata
     id="metadata7">
    <rdf:RDF>
      <cc:Work
         rdf:about="">
        <dc:format>image/svg+xml</dc:format>
        <dc:type
           rdf:resource="http://purl.org/dc/dcmitype/StillImage" />
        <dc:title />
      </cc:Work>
    </rdf:RDF>
  </metadata>
  <g
     inkscape:label="Layer 1"
     inkscape:groupmode="layer"
     id="layer1"
     transform="translate(0,-1036.3622)">
    <g
       id="g3718"
       transform="translate(-0.08666125,-0.13164613)">
      <path
         id="path3976"
         d="m 0.43110195,1037.5029 c -0.308601,0.1793 -0.1842395,0.5698 -0.2089416,0.8622 0,3.5222 0,7.0444 0,10.5666 0.00357,0.3079 0.3746088,0.4687 0.620438,0.3029 0.77364835,-0.3403 1.35390805,-0.9829 1.99361315,-1.5146 0.4452398,-0.3771 0.9249048,-0.8509 1.5465333,-0.8549 0.45719,0.015 0.784931,0.3901 1.146017,0.6262 0.750317,0.5488 1.556705,1.0437 2.452037,1.3102 0.32364,0.065 0.48908,-0.2839 0.656508,-0.4984 0.467927,-0.7042 0.580925,-1.5792 0.565673,-2.405 -0.019833,-0.2854 -0.342564,-0.3765 -0.583748,-0.3256 -0.314203,0.044 -0.6514,-0.05 -0.850539,-0.3087 -0.451047,-0.5513 -0.759973,-1.2849 -0.620438,-2.0054 0.130208,-0.472 0.584814,-0.767 1.041059,-0.8577 0.467418,-0.1064 0.967565,-0.076 1.442014,-0.04 0.268236,0.085 0.5721932,-0.1249 0.5379132,-0.4155 -0.0088,-0.5957 0.01749,-1.1954 -0.01313,-1.7886 -0.03484,-0.3034 -0.3812472,-0.3424 -0.6273812,-0.3364 -0.847061,-0.069 -1.730189,-0.5291 -2.047445,-1.3567 -0.126375,-0.2658 -0.105039,-0.5722 -0.221716,-0.8385 -0.221937,-0.2604 -0.594084,-0.1286 -0.891423,-0.1606 -1.932895,0 -3.8677855,-0.01 -5.79943485,0.01 -0.04587,0.011 -0.091739,0.021 -0.137609,0.032 z"
         style="fill:#aaeeff;fill-opacity:1;stroke:none" />
      <path
         id="path3964"
         d="m 4.2248976,1046.6489 c -0.4564312,0.042 -0.8487213,0.3285 -1.1961679,0.6076 -0.7017659,0.5681 -1.3196429,1.2512 -2.11313865,1.6935 -0.2549234,0.1505 -0.6730554,0.1841 -0.6934307,0.5502 0.00891,0.5695 -0.017617,1.1431 0.01313,1.7101 0.031386,0.2859 0.356466,0.3515 0.5954461,0.3181 2.98783455,0 5.97566885,0 8.96350385,0 0.2804197,-0.01 0.4207837,-0.2993 0.3749997,-0.5501 -0.0087,-0.5803 0.0174,-1.1644 -0.01313,-1.7422 -0.03562,-0.3086 -0.3895647,-0.3368 -0.6355917,-0.3518 -1.125929,-0.1073 -2.22963,-0.483 -3.177007,-1.1077 -0.506131,-0.2989 -0.943587,-0.7103 -1.452555,-1.0073 -0.203944,-0.1095 -0.438602,-0.1301 -0.6660582,-0.1204 z"
         style="fill:#00ff00;fill-opacity:1;stroke:none" />
      <path
         id="path3966"
         d="m 8.8517228,1042.1014 c -0.649777,0.01 -1.403732,0.1692 -1.769161,0.7619 -0.373425,0.6256 -0.164458,1.4072 0.148654,2.0121 0.236477,0.4464 0.615746,0.9297 1.170689,0.9295 0.602124,0.033 1.121474,-0.3347 1.6021902,-0.6487 0.26617,-0.2198 0.133029,-0.5965 0.165146,-0.8951 -0.01484,-0.5912 0.03166,-1.187 -0.03102,-1.7755 -0.05232,-0.2885 -0.3664442,-0.3654 -0.6167882,-0.3641 -0.222763,-0.017 -0.446358,-0.023 -0.669708,-0.02 z"
         style="fill:#00ff00;fill-opacity:1;stroke:none" />
      <path
         id="path3968"
         d="m 7.3152258,1037.5029 c -0.287372,0.1573 -0.201151,0.5057 -0.138686,0.7655 0.207354,0.8714 0.988392,1.5056 1.839416,1.7007 0.311727,0.063 0.657418,0.1415 0.961729,0.03 0.2930632,-0.1798 0.1631152,-0.562 0.1915562,-0.8459 -0.01272,-0.4657 0.02583,-0.9372 -0.0197,-1.3992 -0.05155,-0.2836 -0.3819162,-0.3147 -0.6180782,-0.2896 -0.701858,0.01 -1.407714,-0.018 -2.107081,0.013 -0.03639,0.01 -0.07277,0.017 -0.10916,0.025 z"
         style="fill:#ffff00;fill-opacity:1;stroke:none" />
      <path
         id="path3970"
         d="m 9.6756278,1045.1315 c -0.226696,0.116 -0.494249,0.2097 -0.653153,0.414 -0.115365,0.2916 -0.03041,0.6203 -0.06309,0.9282 -0.02422,0.6755 -0.239909,1.3496 -0.635949,1.9005 -0.154172,0.2632 0.06337,0.607 0.361092,0.6109 0.39007,0.059 0.785913,0.1708 1.181056,0.1323 0.2778162,-0.039 0.3345792,-0.3577 0.3036552,-0.5917 -0.0082,-1.0275 0.01942,-2.0565 -0.02463,-3.083 -0.03848,-0.2241 -0.2446872,-0.3518 -0.4689812,-0.3112 z"
         style="fill:#808000;fill-opacity:1;stroke:none" />
      <rect
         y="1037.5724"
         x="0.33666125"
         height="13.842919"
         width="9.7075262"
         id="rect2844-1"
         style="fill:none;stroke:#000000;stroke-width:0.5;stroke-linecap:butt;stroke-linejoin:miter;stroke-miterlimit:4;stroke-dasharray:none" />
      <path
         sodipodi:nodetypes="czz"
         id="path3108"
         d="m 0.55026255,1049.2374 c 1.85857665,-0.6368 3.05179145,-3.4048 4.58850325,-2.1822 1.536712,1.2225 2.679745,1.8129 4.718522,1.982"
         style="color:#000000;fill:none;stroke:#000000;stroke-width:0.5;stroke-linecap:round;stroke-linejoin:round;stroke-miterlimit:4;stroke-opacity:1;stroke-dasharray:none;stroke-dashoffset:0;marker:none;visibility:visible;display:inline;overflow:visible;enable-background:accumulate" />
      <path
         sodipodi:nodetypes="cc"
         id="path3110"
         d="m 7.2170048,1037.6804 c 0,1.4701 1.250091,2.2771 2.63823,2.2771"
         style="color:#000000;fill:none;stroke:#000000;stroke-width:0.5;stroke-linecap:round;stroke-linejoin:round;stroke-miterlimit:4;stroke-opacity:1;stroke-dasharray:none;stroke-dashoffset:0;marker:none;visibility:visible;display:inline;overflow:visible;enable-background:accumulate" />
      <path
         id="path3112"
         d="m 1.4726903,1045.7848 c 0.84375,-0.5313 1.4375,0.2187 1.4375,0.2187 0,0 0.5625,-0.875 1.1874995,-0.375"
         style="color:#000000;fill:none;stroke:#000000;stroke-width:0.5;stroke-linecap:round;stroke-linejoin:round;stroke-miterlimit:4;stroke-opacity:1;stroke-dasharray:none;stroke-dashoffset:0;marker:none;visibility:visible;display:inline;overflow:visible;enable-background:accumulate" />
      <path
         sodipodi:nodetypes="cc"
         id="path3114"
         d="m 8.2799618,1048.5766 c 1,-1.0312 0.796076,-2.7931 0.796076,-2.7931"
         style="color:#000000;fill:none;stroke:#000000;stroke-width:0.5;stroke-linecap:round;stroke-linejoin:round;stroke-miterlimit:4;stroke-opacity:1;stroke-dasharray:none;stroke-dashoffset:0;marker:none;visibility:visible;display:inline;overflow:visible;enable-background:accumulate" />
      <path
         sodipodi:nodetypes="czz"
         id="path3116"
         d="m 9.9197878,1045.0791 c -1.0847,0.75 -2.023279,1.0876 -2.702327,-0.4881 -0.679047,-1.5757 0.138915,-2.6921 2.635721,-2.3155"
         style="color:#000000;fill:none;stroke:#000000;stroke-width:0.5;stroke-linecap:round;stroke-linejoin:round;stroke-miterlimit:4;stroke-opacity:1;stroke-dasharray:none;stroke-dashoffset:0;marker:none;visibility:visible;display:inline;overflow:visible;enable-background:accumulate" />
    </g>
    <g
       id="g4663"
       transform="matrix(-1.2474103,0,0,1.597882,19.651537,-634.99659)">
      <path
         id="path3844-5"
         d="m 11.921875,1048.2685 -8.21875,0"
         style="color:#000000;fill:#800000;stroke:#800000;stroke-width:0.70830935;stroke-linecap:round;stroke-linejoin:round;stroke-miterlimit:4;stroke-opacity:1;stroke-dasharray:none;stroke-dashoffset:0;marker:none;visibility:visible;display:inline;overflow:visible;enable-background:accumulate" />
      <path
         sodipodi:nodetypes="cccc"
         id="path4624-5"
         d="m 6.640625,1049.7216 c 0,0 -3.3125,-1.4532 -3.3125,-1.4532 l 3.3125,-1.4531 0,2.9063 z"
         style="color:#000000;fill:#800000;stroke:#800000;stroke-width:0.70830935;stroke-linecap:round;stroke-linejoin:round;stroke-miterlimit:4;stroke-opacity:1;stroke-dasharray:none;stroke-dashoffset:0;marker:none;visibility:visible;display:inline;overflow:visible;enable-background:accumulate" />
    </g>
    <g
       id="g3731"
       transform="translate(0.07116655,-0.08585495)">
      <rect
         y="1044.1578"
         x="11.503651"
         height="7.211679"
         width="4.1751828"
         id="rect2872"
         style="fill:#ffffff;stroke:#000000;stroke-width:0.49999994;stroke-miterlimit:4;stroke-dasharray:none" />
      <path
         sodipodi:nodetypes="czz"
         id="path3102"
         d="m 14.617595,1045.9696 c -0.531653,-0.5 -0.668364,-1 -0.896216,-0.3125 -0.227851,0.6875 -0.857076,0.3618 -0.993787,-0.1069"
         style="color:#000000;fill:none;stroke:#000000;stroke-width:0.5;stroke-linecap:round;stroke-linejoin:round;stroke-miterlimit:4;stroke-opacity:1;stroke-dasharray:none;stroke-dashoffset:0;marker:none;visibility:visible;display:inline;overflow:visible;enable-background:accumulate" />
      <path
         sodipodi:nodetypes="czzz"
         id="path3104"
         d="m 12.727814,1047.6444 c 0.379752,0.3125 0.805297,0.6778 0.774916,0.3027 -0.03038,-0.3751 0.357578,-0.4501 0.463908,-0.075 0.106331,0.3751 0.59186,-0.1884 0.804521,-0.2509"
         style="color:#000000;fill:none;stroke:#000000;stroke-width:0.5;stroke-linecap:round;stroke-linejoin:round;stroke-miterlimit:4;stroke-opacity:1;stroke-dasharray:none;stroke-dashoffset:0;marker:none;visibility:visible;display:inline;overflow:visible;enable-background:accumulate" />
      <path
         sodipodi:nodetypes="czz"
         id="path3106"
         d="m 14.613603,1050.1761 c -0.425322,-0.5625 -0.668364,-0.75 -0.850645,-0.3125 -0.182281,0.4375 -0.734558,-0.4948 -0.989796,0.417"
         style="color:#000000;fill:none;stroke:#000000;stroke-width:0.5;stroke-linecap:round;stroke-linejoin:round;stroke-miterlimit:4;stroke-opacity:1;stroke-dasharray:none;stroke-dashoffset:0;marker:none;visibility:visible;display:inline;overflow:visible;enable-background:accumulate" />
    </g>
  </g>
</svg>
