<?xml version="1.0" encoding="UTF-8" standalone="no"?>
<!-- Created with Inkscape (http://www.inkscape.org/) -->

<svg
   xmlns:dc="http://purl.org/dc/elements/1.1/"
   xmlns:cc="http://creativecommons.org/ns#"
   xmlns:rdf="http://www.w3.org/1999/02/22-rdf-syntax-ns#"
   xmlns:svg="http://www.w3.org/2000/svg"
   xmlns="http://www.w3.org/2000/svg"
   xmlns:sodipodi="http://sodipodi.sourceforge.net/DTD/sodipodi-0.dtd"
   xmlns:inkscape="http://www.inkscape.org/namespaces/inkscape"
   width="16"
   height="16"
   id="svg2"
   version="1.1"
   inkscape:version="0.48.3.1 r9886"
   sodipodi:docname="binarithmetic.svg"
   inkscape:export-filename="/home/hornm/workspaces/eclipse/workspace_indigo/knip/org.knime.knip.base/src/org/knime/knip/base/nodes/proc/binary/icons/binarithmetic.png"
   inkscape:export-xdpi="90"
   inkscape:export-ydpi="90">
  <defs
     id="defs4">
    <marker
       inkscape:stockid="Arrow2Send"
       orient="auto"
       refY="0.0"
       refX="0.0"
       id="Arrow2Send"
       style="overflow:visible;">
      <path
         id="path3744"
         style="font-size:12.0;fill-rule:evenodd;stroke-width:0.62500000;stroke-linejoin:round;"
         d="M 8.7185878,4.0337352 L -2.2072895,0.016013256 L 8.7185884,-4.0017078 C 6.9730900,-1.6296469 6.9831476,1.6157441 8.7185878,4.0337352 z "
         transform="scale(0.3) rotate(180) translate(-2.3,0)" />
    </marker>
    <marker
       inkscape:stockid="Arrow1Mend"
       orient="auto"
       refY="0.0"
       refX="0.0"
       id="Arrow1Mend"
       style="overflow:visible;">
      <path
         id="path3720"
         d="M 0.0,0.0 L 5.0,-5.0 L -12.5,0.0 L 5.0,5.0 L 0.0,0.0 z "
         style="fill-rule:evenodd;stroke:#000000;stroke-width:1.0pt;marker-start:none;"
         transform="scale(0.4) rotate(180) translate(10,0)" />
    </marker>
    <marker
       inkscape:stockid="DiamondS"
       orient="auto"
       refY="0.0"
       refX="0.0"
       id="DiamondS"
       style="overflow:visible">
      <path
         id="path3797"
         d="M 0,-7.0710768 L -7.0710894,0 L 0,7.0710589 L 7.0710462,0 L 0,-7.0710768 z "
         style="fill-rule:evenodd;stroke:#000000;stroke-width:1.0pt;marker-start:none"
         transform="scale(0.2)" />
    </marker>
    <marker
       inkscape:stockid="Arrow2Mend"
       orient="auto"
       refY="0.0"
       refX="0.0"
       id="Arrow2Mend"
       style="overflow:visible;">
      <path
         id="path3738"
         style="font-size:12.0;fill-rule:evenodd;stroke-width:0.62500000;stroke-linejoin:round;"
         d="M 8.7185878,4.0337352 L -2.2072895,0.016013256 L 8.7185884,-4.0017078 C 6.9730900,-1.6296469 6.9831476,1.6157441 8.7185878,4.0337352 z "
         transform="scale(0.6) rotate(180) translate(0,0)" />
    </marker>
    <marker
       inkscape:stockid="Arrow1Lend"
       orient="auto"
       refY="0.0"
       refX="0.0"
       id="Arrow1Lend"
       style="overflow:visible;">
      <path
         id="path3714"
         d="M 0.0,0.0 L 5.0,-5.0 L -12.5,0.0 L 5.0,5.0 L 0.0,0.0 z "
         style="fill-rule:evenodd;stroke:#000000;stroke-width:1.0pt;marker-start:none;"
         transform="scale(0.8) rotate(180) translate(12.5,0)" />
    </marker>
    <inkscape:perspective
       sodipodi:type="inkscape:persp3d"
       inkscape:vp_x="0 : 526.18109 : 1"
       inkscape:vp_y="0 : 1000 : 0"
       inkscape:vp_z="1371.7932 : 339.99927 : 1"
       inkscape:persp3d-origin="372.04724 : 350.78739 : 1"
       id="perspective10" />
    <inkscape:perspective
       id="perspective3628"
       inkscape:persp3d-origin="0.5 : 0.33333333 : 1"
       inkscape:vp_z="1 : 0.5 : 1"
       inkscape:vp_y="0 : 1000 : 0"
       inkscape:vp_x="0 : 0.5 : 1"
       sodipodi:type="inkscape:persp3d" />
    <inkscape:perspective
       id="perspective3650"
       inkscape:persp3d-origin="0.5 : 0.33333333 : 1"
       inkscape:vp_z="1 : 0.5 : 1"
       inkscape:vp_y="0 : 1000 : 0"
       inkscape:vp_x="0 : 0.5 : 1"
       sodipodi:type="inkscape:persp3d" />
    <inkscape:perspective
       id="perspective3679"
       inkscape:persp3d-origin="0.5 : 0.33333333 : 1"
       inkscape:vp_z="1 : 0.5 : 1"
       inkscape:vp_y="0 : 1000 : 0"
       inkscape:vp_x="0 : 0.5 : 1"
       sodipodi:type="inkscape:persp3d" />
    <inkscape:perspective
       id="perspective3679-7"
       inkscape:persp3d-origin="0.5 : 0.33333333 : 1"
       inkscape:vp_z="1 : 0.5 : 1"
       inkscape:vp_y="0 : 1000 : 0"
       inkscape:vp_x="0 : 0.5 : 1"
       sodipodi:type="inkscape:persp3d" />
    <inkscape:perspective
       id="perspective2844"
       inkscape:persp3d-origin="0.5 : 0.33333333 : 1"
       inkscape:vp_z="1 : 0.5 : 1"
       inkscape:vp_y="0 : 1000 : 0"
       inkscape:vp_x="0 : 0.5 : 1"
       sodipodi:type="inkscape:persp3d" />
    <inkscape:perspective
       id="perspective2866"
       inkscape:persp3d-origin="0.5 : 0.33333333 : 1"
       inkscape:vp_z="1 : 0.5 : 1"
       inkscape:vp_y="0 : 1000 : 0"
       inkscape:vp_x="0 : 0.5 : 1"
       sodipodi:type="inkscape:persp3d" />
    <inkscape:perspective
       id="perspective2888"
       inkscape:persp3d-origin="0.5 : 0.33333333 : 1"
       inkscape:vp_z="1 : 0.5 : 1"
       inkscape:vp_y="0 : 1000 : 0"
       inkscape:vp_x="0 : 0.5 : 1"
       sodipodi:type="inkscape:persp3d" />
    <marker
       inkscape:stockid="Arrow2Send"
       orient="auto"
       refY="0"
       refX="0"
       id="Arrow2Send-5"
       style="overflow:visible">
      <path
         id="path3744-5"
         style="font-size:12px;fill-rule:evenodd;stroke-width:0.625;stroke-linejoin:round"
         d="M 8.7185878,4.0337352 -2.2072895,0.01601326 8.7185884,-4.0017078 c -1.7454984,2.3720609 -1.7354408,5.6174519 -6e-7,8.035443 z"
         transform="matrix(-0.3,0,0,-0.3,0.69,0)" />
    </marker>
  </defs>
  <sodipodi:namedview
     id="base"
     pagecolor="#ffffff"
     bordercolor="#666666"
     borderopacity="1.0"
     inkscape:pageopacity="0.0"
     inkscape:pageshadow="2"
     inkscape:zoom="22.627417"
     inkscape:cx="6.8336643"
     inkscape:cy="6.410186"
     inkscape:document-units="px"
     inkscape:current-layer="layer1"
     showgrid="false"
     inkscape:window-width="1120"
     inkscape:window-height="785"
     inkscape:window-x="318"
     inkscape:window-y="66"
     inkscape:window-maximized="0" />
  <metadata
     id="metadata7">
    <rdf:RDF>
      <cc:Work
         rdf:about="">
        <dc:format>image/svg+xml</dc:format>
        <dc:type
           rdf:resource="http://purl.org/dc/dcmitype/StillImage" />
        <dc:title></dc:title>
      </cc:Work>
    </rdf:RDF>
  </metadata>
  <g
     inkscape:label="Layer 1"
     inkscape:groupmode="layer"
     id="layer1"
     transform="translate(0,-1036.3622)">
    <path
       style="fill:#636363;fill-opacity:1;stroke:none"
       d="m 11.002511,1043.8399 c -0.322519,0.1655 -0.471172,0.5295 -0.705069,0.791 -0.461121,0.5551 -0.977021,1.1421 -1.7002047,1.3457 -0.6959839,0.2326 -1.4373305,0.2413 -2.1552734,0.3359 -0.2692536,0.043 -0.4030986,0.306 -0.4619141,0.5459 -0.2528579,0.7006 -0.8565274,1.1805 -1.2675781,1.7784 -0.1866582,0.2914 0.038844,0.6329 0.3125,0.7646 0.6864134,0.3696 1.4576574,0.5304 2.2072474,0.7246 0.8809404,0.2155 1.811401,0.2934 2.7097448,0.1328 0.8269011,-0.1547 1.5843261,-0.7072 1.8983271,-1.5003 0.461371,-1.1198 0.31352,-2.3787 0.03225,-3.524 -0.128405,-0.426 -0.224209,-0.8721 -0.445226,-1.2608 -0.100952,-0.1209 -0.270867,-0.1845 -0.424804,-0.1338 z"
       id="path2842"
       inkscape:connector-curvature="0" />
    <path
       style="fill:#000000;fill-opacity:1;stroke:none"
       d="m 7.4507529,1037.1299 c -1.002074,0.031 -2.0536362,0.1794 -2.9091797,0.7373 -0.4532842,0.3344 -0.8661156,0.7851 -0.9472002,1.3647 -0.1784447,0.9488 0.207368,1.8991 0.6902937,2.6987 0.6459628,1.0738 1.5049923,2.0619 1.7774143,3.3136 0.097899,0.3577 0.035551,0.7369 0.1416016,1.0908 0.2117625,0.3064 0.6058113,0.1355 0.9101563,0.1338 0.9213356,-0.089 1.9119971,-0.239 2.6201171,-0.8926 0.619982,-0.5687 1.093814,-1.2756 1.563476,-1.9707 0.169304,-0.2335 0.109411,-0.5377 0.235352,-0.79 0.371574,-0.9835 1.302628,-1.6001 1.787109,-2.5137 0.233472,-0.4137 0.152489,-0.9494 -0.168945,-1.293 -0.618717,-0.6687 -1.48755,-1.0497 -2.333648,-1.3519 -1.081978,-0.3607 -2.2252374,-0.5449 -3.3665471,-0.527 z"
       id="path2840"
       inkscape:connector-curvature="0" />
    <path
       style="fill:#a3a3a3;fill-opacity:1;stroke:none"
       d="m 13.045479,1042.1612 c -0.555407,-0.012 -1.039423,0.3205 -1.401616,0.7092 -0.24079,0.2246 -0.525903,0.5094 -0.438227,0.8728 0.118901,0.6166 0.397274,1.1907 0.510742,1.8086 0.188323,0.7928 0.250027,1.628 0.125976,2.4316 -0.142033,0.7719 -0.587074,1.5511 -1.344726,1.8594 -0.8703891,0.3826 -1.8556195,0.3177 -2.7684973,0.1615 -0.8329997,-0.1762 -1.6681684,-0.3762 -2.4463465,-0.7181 -0.1802533,-0.098 -0.4820958,-0.2242 -0.4101563,-0.4785 0.372983,-0.5954 0.9702603,-1.0389 1.2421875,-1.7022 0.126095,-0.2077 0.1828931,-0.5052 -0.036133,-0.6758 -0.26061,-0.1496 -0.5971237,-0.032 -0.8913406,-0.029 -0.9146439,0.094 -1.8831512,0.155 -2.6828781,0.6535 -0.4802569,0.2944 -0.7345079,0.8816 -0.6464844,1.4326 0.094371,0.8301 0.7929494,1.4252 1.4863281,1.8017 1.3887782,0.7366 2.9660713,1.0186 4.5151981,1.1769 1.2217166,0.1228 2.4563635,0.1215 3.6747775,-0.038 1.065502,-0.1325 2.153305,-0.387 3.059048,-0.9876 1.165531,-0.8528 1.774324,-2.3293 1.719726,-3.7529 0.01662,-1.0466 -0.282012,-2.0953 -0.824337,-2.9884 -0.519949,-0.8441 -1.403359,-1.5709 -2.443241,-1.537 z"
       id="path2844"
       inkscape:connector-curvature="0" />
    <rect
       ry="2.5365337e-06"
       rx="1.8662621e-06"
       y="1036.3622"
       x="0"
       height="16"
       width="2"
       id="rect3089"
       style="fill:#8c0000;fill-opacity:1;stroke:none" />
  </g>
</svg>
